<svg xmlns="http://www.w3.org/2000/svg" xmlns:xlink="http://www.w3.org/1999/xlink" xmlns:lucid="lucid" width="1501" height="1141"><g transform="translate(-219.5 -179.5)" lucid:page-tab-id="0_0"><path d="M0 0h2000v1500H0z" fill="#fafbfc"/><path d="M260 342a30 30 0 0 1 30-30h1352.73a30 30 0 0 1 30 30v688a30 30 0 0 1-30 30H290a30 30 0 0 1-30-30z" stroke="#474747" fill="#edf5ff"/><path d="M321.97 300.24v-5.9c0-7.25-5.88-13.13-13.12-13.13-7.24 0-13.12 5.9-13.12 13.14v5.9h6.64v-5.9c0-3.58 2.9-6.5 6.48-6.5 3.57 0 6.48 2.92 6.48 6.5v5.9h6.64z" fill="#876a22"/><path d="M321.98 300.26h5.42v20.83H290v-20.84h5.72v-7.1c0-7.28 5.87-13.16 13.13-13.16 7.25 0 13.13 5.88 13.13 13.15v7.1zm-6.66 0v-7.1c0-3.6-2.88-6.5-6.47-6.5-3.6 0-6.47 2.9-6.47 6.5v7.1h12.94z" fill="#daa835"/><path d="M290 321.1h37.4v.9H290z" fill="#876a22"/><use xlink:href="#a" transform="matrix(1,0,0,1,260,1030) translate(647.2716049382716 11.11111111111111)"/><use xlink:href="#b" transform="matrix(1,0,0,1,260,1030) translate(699.0617283950617 11.11111111111111)"/><path d="M240 206a6 6 0 0 1 6-6h1448a6 6 0 0 1 6 6v1088a6 6 0 0 1-6 6H246a6 6 0 0 1-6-6z" stroke="#b40c4c" fill="#fff" fill-opacity="0"/><path d="M250.13 210.13l.18-.22h35.4l.4.4v35.4l-.4.4h-35.4l-.4-.4v-35.4zm34.66 1.12l-.16-.1H268c-15.1 0-16.68 0-16.8.06-.06.12-.06 1.72-.06 16.8v16.64l.1.15.16.1h33.2l.3-.3v-33.2zM254.3 221.3l.2-.2h11.56l.22.2.22.22v11.58l-.4.4h-11.6l-.2-.22-.2-.18v-11.6zm18.64 8.33c.65-.18 2.02-.18 2.6 0l.65.18c.12 0 .37.12.56.2.14.1.32.17.4.17.06 0 .14.04.17.1.04.04.22.2.37.26.18.07.3.18.3.22l.2.14c.1.03.22.1.22.17.03.08.07.1.07.1.06 0 .57.52.57.56 0 .03.07.14.18.25.1.14.22.25.22.3 0 .03.07.17.14.24.12.1.2.25.2.3 0 .03.07.25.17.46.1.18.22.44.22.5 0 .08.06.33.14.6.2.64.2 1.98 0 2.63-.08.26-.15.5-.15.6 0 .17-.12.4-.23.5-.03.03-.1.2-.14.4-.07.14-.1.28-.14.28-.05 0-.12.1-.2.25-.07.1-.18.3-.3.4-.06.07-.13.18-.13.22 0 0-.18.22-.4.43-.22.22-.4.4-.43.4-.04 0-.1.07-.22.15-.07.07-.3.2-.4.28l-.25.16c0 .04-.1.1-.3.14l-.4.2c-.1.1-.3.17-.5.17-.07 0-.32.07-.54.18-.68.2-2.02.2-2.67 0-.26-.1-.5-.18-.58-.18-.07 0-.3-.08-.5-.2-.23-.1-.4-.17-.48-.17-.04 0-.14-.07-.25-.18-.1-.1-.22-.18-.26-.18-.08 0-.2-.07-.3-.18l-.25-.18c-.07 0-.58-.5-.58-.58 0-.03-.03-.07-.1-.07-.08-.04-.15-.15-.2-.25-.06-.08-.1-.2-.13-.2-.04.02-.1-.1-.22-.27-.07-.14-.18-.32-.25-.36-.04-.03-.1-.14-.1-.18 0-.07-.08-.25-.15-.43-.1-.14-.2-.4-.22-.54 0-.12-.1-.4-.18-.66-.18-.58-.18-1.9 0-2.54.1-.25.18-.58.2-.72.05-.18.12-.33.16-.36l.14-.33c.04-.15.15-.33.22-.44.1-.1.18-.22.18-.25 0-.07.47-.68.8-1 .3-.3.9-.8 1-.8.05 0 .15-.08.23-.15.1-.07.3-.18.43-.22.15-.03.3-.1.33-.18.04-.03.22-.07.37-.1l.7-.22zm-7.78-7.16l-.1-.15h-4.78c-4.27 0-4.78.04-4.9.1-.06.08-.06.6-.06 4.86v4.77l.1.15c.15.1.2.1 4.86.1h4.73l.15-.14.1-.14v-4.7c0-4.7 0-4.75-.1-4.85zm10.78-9.16c.22-.17.7-.3.7-.13 0 .03.06.07.17.14.1.05.18.16.2.23 0 .1.12.25.2.4.07.1.14.25.14.3 0 .06.07.17.14.28.1.12.2.3.23.44.04.1.1.25.18.33.05.07.12.2.16.32.03.1.1.28.18.4.1.1.18.24.18.35.03.07.1.22.22.36.07.12.14.27.14.34 0 .03.07.18.15.3.07.1.14.28.18.4.04.1.15.24.2.3.06.08.13.23.17.34.03.1.1.3.18.4.07.1.14.28.18.36.04.07.1.25.18.36.12.14.2.25.2.32 0 .04.03.2.1.3.1.1.18.28.22.4.03.14.1.28.18.35.07.04.14.18.14.3.04.1.15.28.22.4.07.1.14.28.18.4.04.1.14.28.22.35.07.1.1.25.1.3 0 .06.08.17.15.28.08.1.2.3.23.43.03.1.1.26.18.33.26.3.33.9.15 1.23-.03 0-.03.03-.03.06-.15.18-.58.18-6 .15h-5.43l-.16-.17c-.18-.22-.18-.87 0-1.1.07-.06.18-.24.22-.35.03-.1.1-.3.18-.4.07-.07.14-.22.14-.33.04-.1.15-.28.22-.4.1-.14.18-.32.18-.35 0-.08.04-.2.15-.26.07-.1.14-.3.18-.4l.15-.32c.07-.07.15-.22.18-.33.04-.15.15-.33.22-.4.07-.1.14-.26.14-.33.03-.1.1-.3.2-.44.08-.14.16-.28.16-.32 0-.06.07-.17.14-.28.07-.07.18-.25.22-.36.03-.15.1-.3.14-.33.08-.07.15-.22.18-.36l.18-.36c.08-.1.15-.24.2-.35 0-.08.1-.26.17-.4.1-.15.17-.3.17-.36 0-.05.07-.2.14-.27.08-.1.2-.28.2-.4.03-.1.1-.25.17-.32.04-.03.15-.2.18-.3.04-.12.1-.3.2-.4.06-.08.13-.23.13-.34.04-.1.14-.3.22-.43.1-.1.18-.26.18-.33 0-.03.07-.18.18-.3zm-.36 17.56c-.44-.18-2.43-.15-2.68.03-.07.07-.3.14-.43.17-.2.04-.38.1-.48.2-.08.06-.22.13-.3.17-.14.03-.43.25-.93.76-.5.5-.7.76-.77.94-.04.07-.1.2-.18.3-.08.06-.15.28-.2.42-.02.18-.1.4-.17.5-.2.37-.14 2.8.08 2.8.03 0 .07.1.07.25.03.15.1.37.18.48.08.1.2.25.23.36.07.18.18.32.5.7.1.1.22.2.26.28.06.07.17.18.27.25.08.07.26.18.33.3l.3.17c.06.03.2.1.32.18.1.1.32.18.43.18.14.04.32.1.43.18.33.18 2.54.18 2.8 0 .1-.07.28-.14.4-.14.13-.04.35-.1.46-.2l.4-.24c.14-.07.2-.14.2-.14 0-.04.1-.07.12-.1.15-.05.94-.84.98-1 .03-.06.07-.1.1-.1.04 0 .12-.1.15-.2l.24-.45c.08-.1.15-.28.2-.42.02-.1.1-.3.13-.4.22-.25.18-2.46 0-2.8-.07-.1-.14-.3-.14-.42-.04-.1-.1-.33-.2-.43-.1-.1-.17-.26-.2-.33 0-.07-.1-.22-.18-.3-.08-.1-.22-.24-.3-.35-.06-.07-.17-.22-.25-.25-.03-.08-.18-.18-.3-.26-.35-.36-.5-.43-.67-.5-.07-.08-.26-.15-.37-.22-.1-.07-.32-.15-.43-.18l-.25-.07c0-.04-.1-.08-.18-.1zm1.05-15.38c-.1-.14-.44-.03-.55.22-.07.07-.14.25-.18.36-.07.1-.14.25-.18.33-.04.1-.1.24-.18.35l-.14.32c-.08.08-.15.22-.2.33-.02.1-.1.25-.17.36l-.18.36c-.03.1-.14.3-.18.37-.04.1-.15.28-.2.35-.02.1-.13.3-.17.36l-.14.34c-.1.1-.16.25-.2.32-.03.07-.1.25-.18.36-.03.1-.1.25-.14.33-.07.07-.14.25-.22.36-.03.12-.1.3-.18.4-.03.08-.1.26-.18.37l-.14.33c-.08.07-.15.2-.2.32-.17.4-.3.65-.38.8-.15.25-.3.43-.22.54.07.25.98.22 4.3.22h4l.13-.1c.13-.16.06-.45-.12-.66-.07-.04-.14-.22-.18-.33-.04-.12-.1-.3-.22-.4-.07-.08-.1-.22-.1-.26 0-.07-.08-.22-.15-.33-.1-.13-.22-.3-.25-.46-.04-.14-.1-.25-.15-.3-.04-.02-.1-.17-.18-.3-.04-.16-.1-.34-.18-.4-.07-.08-.14-.23-.18-.34-.05-.14-.12-.32-.2-.4-.06-.1-.14-.2-.14-.28 0-.04-.07-.22-.14-.33-.07-.12-.18-.33-.22-.44-.07-.15-.14-.3-.18-.33-.03-.03-.1-.18-.14-.32-.08-.14-.15-.28-.22-.36-.04-.07-.1-.2-.15-.36-.02-.1-.13-.3-.2-.4-.07-.07-.15-.18-.15-.25s-.07-.22-.14-.32c-.06-.1-.17-.32-.2-.43-.05-.14-.12-.25-.15-.3z" stroke="#fff" stroke-opacity="0" fill="#fff"/><path d="M240 256v-56h56v56h-56zm46.14-45.7l-.44-.4h-35.4l-.16.24-.23.16v35.4l.4.44h35.45l.4-.4V210.3zm-34.88.96c.05-.12 1.68-.12 16.74-.12h16.7l.1.12.1.1v33.27l-.27.28h-33.26l-.1-.1-.13-.1V228c0-15.06 0-16.7.12-16.74zm15.06 10.08l-.22-.23h-11.6l-.16.24-.23.16v11.6l.24.22.16.22h11.6l.44-.4V221.5zm9.24 8.28c-.56-.16-1.96-.16-2.58.06-.22.06-.56.1-.67.17-.16.05-.32.1-.38.1-.06.07-.17.12-.34.18-.1.05-.33.17-.4.22-.1.1-.2.17-.27.17-.04 0-.66.5-1 .78-.28.34-.78.96-.78 1 0 .07-.06.18-.17.3-.05.05-.17.27-.22.38-.06.17-.1.28-.17.34 0 .06-.06.22-.1.4-.07.1-.12.44-.24.72-.16.62-.16 1.96 0 2.52.12.22.17.5.17.67.05.1.1.34.22.5.1.17.16.4.16.45 0 .06.06.12.12.17.05.06.16.23.22.4.1.16.22.27.22.27.06 0 .12.12.17.17 0 .1.12.22.18.22l.1.1c0 .06.52.57.57.57 0 0 .1.1.28.2.1.07.23.18.28.18 0 0 .12.06.24.17.1.1.22.17.28.17.05 0 .28.1.44.22.23.06.45.17.56.17.06 0 .34.06.56.18.62.22 2.02.22 2.64 0 .28-.12.5-.17.6-.17.18 0 .4-.1.52-.16 0-.06.22-.17.4-.22.16 0 .27-.12.27-.12 0-.05.12-.1.23-.16l.4-.28c.1-.12.22-.17.22-.17.05 0 .22-.18.45-.4.22-.23.4-.4.4-.45 0 0 .04-.1.16-.23.05-.05.22-.28.28-.4.05-.1.1-.2.16-.2 0 0 .12-.12.12-.3.05-.16.16-.38.22-.38.06-.12.17-.34.17-.5 0-.12.06-.34.18-.62.22-.62.22-2.02 0-2.64-.12-.22-.17-.5-.17-.56 0-.1-.1-.33-.16-.56-.1-.16-.22-.4-.22-.44 0-.06-.06-.17-.17-.28l-.17-.23c0-.04-.1-.16-.17-.27-.1-.17-.2-.28-.2-.28 0-.05-.52-.56-.57-.56 0 0-.06-.06-.06-.12-.05-.06-.17-.1-.28-.17-.06-.04-.18-.1-.18-.16 0 0-.1-.1-.28-.22-.16-.06-.33-.17-.4-.22-.04-.06-.1-.12-.16-.12-.05 0-.28-.05-.44-.16-.17-.12-.4-.17-.5-.23-.18 0-.46-.06-.68-.18zm-20.1-7.16c.05-.12.56-.12 4.87-.12h4.76l.1.12c.1.1.1.16.1 4.87v4.7l-.1.17-.17.1h-4.7c-4.7 0-4.76 0-4.87-.1l-.12-.1v-4.77c0-4.3 0-4.82.12-4.87zm21.22-9.3c0-.06-.1-.06-.22-.06-.28 0-.68.34-.68.5 0 .06-.05.23-.16.34-.12.17-.17.34-.23.45 0 .05-.06.22-.12.33-.1.05-.17.22-.22.4-.06.1-.12.2-.17.33-.07.05-.12.16-.18.28 0 .1-.1.28-.17.4-.1.1-.17.2-.17.27 0 .06-.05.23-.16.34-.12.17-.17.34-.23.45 0 .05-.06.22-.12.33-.1.05-.17.22-.22.4l-.17.27c-.07.1-.12.22-.18.34 0 .1-.1.28-.17.4-.1.1-.17.2-.17.27 0 .06-.05.23-.16.34-.12.17-.17.34-.23.45 0 .05-.06.22-.12.33-.1.05-.17.22-.22.4-.06.1-.12.2-.17.33-.07.05-.12.16-.18.28 0 .1-.1.28-.17.4-.1.1-.17.2-.17.27 0 .06-.05.23-.16.34-.12.17-.17.34-.23.45 0 .05-.06.22-.12.33-.1.05-.17.22-.22.4-.06.1-.12.27-.17.33-.24.22-.24.9-.07 1.12l.17.16h5.43c5.43 0 5.88 0 6-.16 0-.06.05-.06.05-.12.17-.28.1-.9-.17-1.17-.04-.12-.1-.24-.16-.35-.05-.17-.1-.33-.22-.45-.06-.1-.1-.22-.1-.28 0-.05-.07-.16-.12-.28-.12-.1-.17-.28-.23-.4-.05-.1-.1-.27-.22-.38-.06-.1-.1-.28-.17-.4 0-.1-.1-.22-.17-.27-.04-.12-.1-.24-.16-.35-.05-.17-.1-.33-.22-.45-.06-.1-.1-.22-.1-.28 0-.05-.07-.16-.18-.33-.06-.12-.17-.3-.17-.35-.05-.1-.1-.28-.17-.4-.1-.1-.16-.27-.22-.38 0-.1-.1-.23-.17-.28-.04-.12-.1-.24-.16-.35-.05-.17-.1-.33-.22-.45-.06-.1-.1-.22-.1-.28 0-.05-.07-.16-.18-.33-.06-.12-.17-.3-.17-.35-.05-.1-.1-.28-.17-.4-.1-.1-.16-.27-.22-.38 0-.1-.1-.23-.17-.28-.04-.12-.1-.24-.16-.35-.05-.17-.1-.33-.22-.45-.06-.1-.1-.22-.1-.28 0-.05-.07-.16-.18-.33-.06-.12-.17-.3-.17-.35-.05-.1-.1-.22-.22-.28-.1 0-.17-.05-.17-.1zm-3.36 17.64c.78-.1 2.46 0 2.46.17 0 .05.12.05.28.1.12 0 .34.07.45.18.12.05.3.17.35.17.17.1.33.16.67.56.1.05.28.16.34.22.05.06.16.17.22.28.06.1.22.22.28.34.1.1.17.22.22.28 0 .05.06.22.17.33.1.1.17.34.17.45.06.1.1.34.17.45.2.28.2 2.52 0 2.8-.07.05-.12.22-.12.4-.06.1-.12.33-.23.44-.05.1-.17.28-.22.4-.06.1-.1.2-.17.2 0 0-.06.07-.06.13-.05.16-.84.95-1 1-.06 0-.12.06-.12.06 0 .06-.1.1-.22.17-.1.05-.28.17-.4.22-.1.1-.33.17-.44.23-.17 0-.34.05-.4.1-.27.23-2.5.23-2.8 0-.1-.05-.33-.1-.44-.16-.1 0-.34-.1-.45-.17-.1-.1-.28-.17-.33-.17-.06-.05-.17-.1-.28-.22-.12-.06-.23-.22-.34-.28-.1-.06-.22-.17-.28-.22-.06-.06-.17-.23-.22-.34-.4-.34-.45-.5-.56-.67 0-.06-.12-.23-.17-.34-.1-.1-.17-.32-.17-.44-.06-.16-.06-.28-.1-.28-.24 0-.3-2.4-.07-2.8.07-.1.12-.33.18-.5.06-.17.1-.34.17-.45.1-.05.17-.22.17-.28.05-.17.28-.45.78-.95.5-.5.78-.73.95-.78.06 0 .23-.06.28-.17.1-.06.28-.1.45-.17.17-.06.4-.1.45-.17.05-.04.28-.1.4-.1zm3.02-15.34c.28-.12.34-.06.45.33l.22.38c.1.17.16.28.16.34s.06.22.12.28c.1.1.16.28.22.4.06.1.1.27.17.33.04.05.16.22.2.4 0 .16.12.27.12.33.06.05.12.16.17.28.05.16.16.33.22.44.1.17.16.28.16.34s.06.22.12.28c.1.1.16.28.22.4.06.1.1.27.17.33.04.05.16.22.2.4 0 .16.12.27.12.33.06.05.12.16.17.28.05.16.16.33.22.44.1.17.16.28.16.34s.06.22.12.28c.1.1.16.28.22.4.06.1.1.27.17.33.2.22.27.5.1.6l-.1.18h-4c-3.35 0-4.24 0-4.36-.2 0-.18.12-.35.23-.57.1-.1.22-.4.45-.8 0-.1.1-.27.16-.32 0-.05.12-.22.17-.33 0-.1.1-.28.17-.33.06-.12.1-.28.17-.4.04-.16.16-.33.2-.4 0-.04.12-.2.12-.32.06-.12.17-.28.17-.34.05-.06.16-.22.22-.34 0-.1.1-.28.16-.33 0-.05.12-.22.17-.33 0-.1.1-.28.17-.4.06-.05.1-.2.17-.33.04-.16.16-.33.2-.4 0-.04.12-.2.12-.32.06-.12.17-.28.17-.34.05-.06.16-.22.22-.34 0-.1.1-.28.16-.33 0-.05.12-.22.17-.33 0-.1.1-.28.17-.4.06-.05.1-.16.22-.2z" stroke="#fff" stroke-opacity="0" fill="#b40c4c"/><use xlink:href="#c" transform="matrix(1,0,0,1,311,220) translate(0 14.4)"/><use xlink:href="#d" transform="matrix(1,0,0,1,311,220) translate(45.3 14.4)"/><path d="M320 346a6 6 0 0 1 6-6h1128a6 6 0 0 1 6 6v548a6 6 0 0 1-6 6H326a6 6 0 0 1-6-6z" fill="#fff3d9"/><path d="M323.7 340.47l.45-.18.9-.23.95-.07h2m4 0h4m4 0h4m4 0h4m4 0h4m4 0h4m4 0h4m4 0h4m4 0h4m4 0h4m4 0h4m4 0h4m4 0h4m4 0h4m4 0h4m4 0h4m4 0h4m4 0h4m4 0h4m4 0h4m4 0h4m4 0h4m4 0h4m4 0h4m4 0h4m4 0h4m4 0h4m4 0h4m4 0h4m4 0h4m4 0h4m4 0h4m4 0h4m4 0h4m4 0h4m4 0h4m4 0h4m4 0h4m4 0h4m4 0h4m4 0h4m4 0h4m4 0h4m4 0h4m4 0h4m4 0h4m4 0h4m4 0h4m4 0h4m4 0h4m4 0h4m4 0h4m4 0h4m4 0h4m4 0h4m4 0h4m4 0h4m4 0h4m4 0h4m4 0h4m4 0h4m4 0h4m4 0h4m4 0h4m4 0h4m4 0h4m4 0h4m4 0h4m4 0h4m4 0h4m4 0h4m4 0h4m4 0h4m4 0h4m4 0h4m4 0h4m4 0h4m4 0h4m4 0h4m4 0h4m4 0h4m4 0h4m4 0h4m4 0h4m4 0h4m4 0h4m4 0h4m4 0h4m4 0h4m4 0h4m4 0h4m4 0h4m4 0h4m4 0h4m4 0h4m4 0h4m4 0h4m4 0h4m4 0h4m4 0h4m4 0h4m4 0h4m4 0h4m4 0h4m4 0h4m4 0h4m4 0h4m4 0h4m4 0h4m4 0h4m4 0h4m4 0h4m4 0h4m4 0h4m4 0h4m4 0h4m4 0h4m4 0h4m4 0h4m4 0h4m4 0h4m4 0h4m4 0h4m4 0h4m4 0h4m4 0h4m4 0h4m4 0h4m4 0h4m4 0h4m4 0h4m4 0h4m4 0h4m4 0h4m4 0h4m4 0h4m4 0h4m4 0h4m4 0h4m4 0h4m4 0h4m4 0h2l.94.07.9.22.45.17m3.23 3.24l.18.45.23.9.07.95v2m0 3.96v3.97m0 3.97v3.97m0 3.97v3.97m0 3.98v3.97m0 3.98v3.97m0 3.97v3.97m0 3.97v3.98m0 3.97v3.97m0 3.97v3.96m0 3.98v3.97m0 3.98v3.97m0 3.97v3.97m0 3.96v3.97m0 3.97v3.97m0 3.97v3.98m0 3.97v3.96m0 3.97V483m0 3.97v3.97m0 3.97v3.98m0 3.98v3.97m0 3.97v3.97m0 3.97v3.97m0 3.98v3.97m0 3.97v3.97m0 3.97v3.97m0 3.97v3.98m0 3.97v3.97m0 3.97v3.96m0 3.97v3.97m0 3.98v3.97m0 3.97v3.97m0 3.96v3.97m0 3.97v3.97m0 3.97V618m0 4v3.96m0 3.97v3.97m0 3.97v3.97m0 3.97v3.98m0 3.97v3.98m0 3.97v3.97m0 3.97v3.97m0 3.98v3.97m0 3.97v3.97m0 3.96v3.97m0 3.98v3.98m0 3.97v3.97m0 3.97v3.96m0 3.97v3.97m0 3.97v3.98m0 3.97v3.97m0 3.96v3.97m0 3.97v3.97m0 3.97v3.97m0 3.98v3.98m0 3.97v3.97m0 3.97v3.97m0 3.97v3.98m0 3.97v3.97m0 3.97v3.97m0 3.97v3.97m0 3.98v3.97m0 3.97v3.97m0 3.96v3.97m0 3.97v3.98m0 3.97v3.97m0 3.97v3.96m0 3.97v3.97m0 3.97v3.97m0 3.97v2l-.07.94-.22.9-.17.45m-3.24 3.23l-.45.18-.9.23-.95.07h-2m-4 0h-4m-4 0h-4m-4 0h-4m-4 0h-4m-4 0h-4m-4 0h-4m-4 0h-4m-4 0h-4m-4 0h-4m-4 0h-4m-4 0h-4m-4 0h-4m-4 0h-4m-4 0h-4m-4 0h-4m-4 0h-4m-4 0h-4m-4 0h-4m-4 0h-4m-4 0h-4m-4 0h-4m-4 0h-4m-4 0h-4m-4 0h-4m-4 0h-4m-4 0h-4m-4 0h-4m-4 0h-4m-4 0h-4m-4 0h-4m-4 0h-4m-4 0h-4m-4 0h-4m-4 0h-4m-4 0h-4m-4 0h-4m-4 0h-4m-4 0h-4m-4 0h-4m-4 0h-4m-4 0h-4m-4 0h-4m-4 0h-4m-4 0h-4m-4 0h-4m-4 0h-4m-4 0h-4m-4 0h-4m-4 0h-4m-4 0h-4m-4 0h-4m-4 0h-4m-4 0h-4m-4 0h-4m-4 0h-4m-4 0h-4m-4 0h-4m-4 0h-4m-4 0h-4m-4 0h-4m-4 0h-4m-4 0h-4m-4 0h-4m-4 0h-4m-4 0h-4m-4 0h-4m-4 0h-4m-4 0h-4m-4 0h-4m-4 0h-4m-4 0h-4m-4 0h-4m-4 0h-4m-4 0h-4m-4 0h-4m-4 0h-4m-4 0h-4m-4 0h-4m-4 0h-4m-4 0h-4m-4 0h-4m-4 0h-4m-4 0h-4m-4 0h-4m-4 0h-4m-4 0h-4m-4 0h-4m-4 0h-4m-4 0h-4m-4 0h-4m-4 0h-4m-4 0h-4m-4 0h-4m-4 0h-4m-4 0h-4m-4 0h-4m-4 0h-4m-4 0h-4m-4 0h-4m-4 0h-4m-4 0h-4m-4 0h-4m-4 0h-4m-4 0h-4m-4 0h-4m-4 0h-4m-4 0h-4m-4 0h-4m-4 0h-4m-4 0h-4m-4 0h-4m-4 0h-4m-4 0h-4m-4 0h-4m-4 0h-4m-4 0h-4m-4 0h-4m-4 0h-4m-4 0h-4m-4 0h-4m-4 0h-4m-4 0h-4m-4 0h-4m-4 0h-4m-4 0h-4m-4 0h-4m-4 0h-4m-4 0h-4m-4 0h-4m-4 0h-4m-4 0h-4m-4 0h-4m-4 0h-4m-4 0h-4m-4 0h-4m-4 0h-4m-4 0h-4m-4 0h-4m-4 0h-4m-4 0h-4m-4 0h-2l-.94-.07-.9-.22-.45-.17m-3.23-3.24l-.18-.45-.23-.9-.07-.95v-2m0-3.96v-3.97m0-3.97v-3.97m0-3.97v-3.97m0-3.98v-3.97m0-3.98v-3.97m0-3.97v-3.97m0-3.97v-3.98m0-3.97v-3.97m0-3.97v-3.96m0-3.97v-3.98m0-3.98v-3.97m0-3.97v-3.97m0-3.96v-3.97m0-3.97v-3.97m0-3.98v-3.97m0-3.97v-3.96m0-3.97V757m0-3.97v-3.97m0-3.97v-3.98m0-3.98v-3.97m0-3.97v-3.97m0-3.97v-3.97m0-3.98v-3.97m0-3.97v-3.97m0-3.97v-3.97m0-3.97v-3.98m0-3.97v-3.97m0-3.97v-3.96m0-3.97v-3.97m0-3.98v-3.97m0-3.97v-3.97m0-3.96v-3.97m0-3.97v-3.97m0-3.97V622m0-4v-3.96m0-3.97v-3.97m0-3.97v-3.97m0-3.97v-3.98m0-3.97v-3.98m0-3.97v-3.97m0-3.97v-3.97m0-3.98v-3.97m0-3.97v-3.97m0-3.96v-3.97m0-3.98v-3.98m0-3.97v-3.97m0-3.97v-3.96m0-3.97v-3.97m0-3.97v-3.97m0-3.98v-3.97m0-3.96v-3.97m0-3.97v-3.97m0-3.97v-3.97m0-3.98v-3.98m0-3.97v-3.97m0-3.97v-3.97m0-3.97v-3.98m0-3.97v-3.97m0-3.97v-3.96m0-3.98v-3.97m0-3.98v-3.97m0-3.97v-3.97m0-3.96v-3.97m0-3.97v-3.97m0-3.98v-3.97m0-3.97v-3.96m0-3.97v-3.97m0-3.97v-3.97m0-3.97v-2l.07-.94.22-.9.17-.45" stroke="#5a6c86" fill="none"/><use xlink:href="#e" transform="matrix(1,0,0,1,320,360) translate(492.275 14.4)"/><use xlink:href="#f" transform="matrix(1,0,0,1,320,360) translate(533.275 14.4)"/><use xlink:href="#g" transform="matrix(1,0,0,1,320,360) translate(595.775 14.4)"/><path d="M576 522a2 2 0 0 1 2-2h176a2 2 0 0 1 2 2v236a2 2 0 0 1-2 2H578a2 2 0 0 1-2-2z" fill="#cfe4ff"/><use xlink:href="#h" transform="matrix(1,0,0,1,592,536) translate(0 16.69921875)"/><use xlink:href="#i" transform="matrix(1,0,0,1,592,536) translate(54.0791015625 16.69921875)"/><use xlink:href="#j" transform="matrix(1,0,0,1,592,536) translate(103.7724609375 16.69921875)"/><use xlink:href="#k" transform="matrix(1,0,0,1,592,536) translate(0 37.79296875)"/><use xlink:href="#l" transform="matrix(1,0,0,1,592,536) translate(0 58.88671875)"/><use xlink:href="#m" transform="matrix(1,0,0,1,592,536) translate(0 79.98046875)"/><use xlink:href="#n" transform="matrix(1,0,0,1,592,536) translate(69.29296875 79.98046875)"/><use xlink:href="#o" transform="matrix(1,0,0,1,592,536) translate(107.7626953125 79.98046875)"/><use xlink:href="#p" transform="matrix(1,0,0,1,592,536) translate(0 101.07421875)"/><use xlink:href="#q" transform="matrix(1,0,0,1,592,536) translate(64.810546875 101.07421875)"/><use xlink:href="#r" transform="matrix(1,0,0,1,592,536) translate(107.47265625 101.07421875)"/><use xlink:href="#s" transform="matrix(1,0,0,1,592,536) translate(0 122.16796875)"/><use xlink:href="#t" transform="matrix(1,0,0,1,592,536) translate(47.8740234375 122.16796875)"/><use xlink:href="#u" transform="matrix(1,0,0,1,592,536) translate(0 143.26171875)"/><use xlink:href="#v" transform="matrix(1,0,0,1,592,536) translate(92.8388671875 143.26171875)"/><path d="M918.32 522a2 2 0 0 1 2-2h179.15a2 2 0 0 1 2 2v236a2 2 0 0 1-2 2H920.32a2 2 0 0 1-2-2z" fill="#cfe4ff"/><use xlink:href="#h" transform="matrix(1,0,0,1,934.3157894736843,536) translate(0 16.69921875)"/><use xlink:href="#i" transform="matrix(1,0,0,1,934.3157894736843,536) translate(54.0791015625 16.69921875)"/><use xlink:href="#j" transform="matrix(1,0,0,1,934.3157894736843,536) translate(103.7724609375 16.69921875)"/><use xlink:href="#k" transform="matrix(1,0,0,1,934.3157894736843,536) translate(0 37.79296875)"/><use xlink:href="#l" transform="matrix(1,0,0,1,934.3157894736843,536) translate(0 58.88671875)"/><use xlink:href="#m" transform="matrix(1,0,0,1,934.3157894736843,536) translate(0 79.98046875)"/><use xlink:href="#n" transform="matrix(1,0,0,1,934.3157894736843,536) translate(69.29296875 79.98046875)"/><use xlink:href="#o" transform="matrix(1,0,0,1,934.3157894736843,536) translate(107.7626953125 79.98046875)"/><use xlink:href="#p" transform="matrix(1,0,0,1,934.3157894736843,536) translate(0 101.07421875)"/><use xlink:href="#q" transform="matrix(1,0,0,1,934.3157894736843,536) translate(64.810546875 101.07421875)"/><use xlink:href="#r" transform="matrix(1,0,0,1,934.3157894736843,536) translate(107.47265625 101.07421875)"/><use xlink:href="#s" transform="matrix(1,0,0,1,934.3157894736843,536) translate(0 122.16796875)"/><use xlink:href="#t" transform="matrix(1,0,0,1,934.3157894736843,536) translate(47.8740234375 122.16796875)"/><use xlink:href="#u" transform="matrix(1,0,0,1,934.3157894736843,536) translate(0 143.26171875)"/><use xlink:href="#v" transform="matrix(1,0,0,1,934.3157894736843,536) translate(92.8388671875 143.26171875)"/><path d="M872 446a6 6 0 0 1 6-6h477.47a6 6 0 0 1 6 6v388a6 6 0 0 1-6 6H878a6 6 0 0 1-6-6z" stroke="#d86613" fill="#fff" fill-opacity="0"/><path d="M872 440h56v56h-56v-56z" stroke="#fff" stroke-opacity="0" fill="#d86613"/><path d="M919.2 458.75v-1.58h-3.76v-4.6h-4.8v-3.77h-1.62v3.76h-3.4v-3.76h-1.63v3.76h-3.4v-3.76H899v3.76h-3.42v-3.76h-1.6v3.76h-3.43v-3.76h-1.57v3.76h-4.42v4.57h-3.76v1.62h3.76v3.4h-3.76v1.63h3.76v3.4h-3.76v1.63h3.76v3.42h-3.76v1.62h3.76v3.4h-3.76v1.63h3.76v4.57h4.42v3.76h1.57v-3.76h3.42v3.76h1.6v-3.76H899v3.76h1.6v-3.76h3.4v3.76h1.6v-3.76h3.42v3.76h1.62v-3.76h4.8v-4.57h3.76v-1.62h-3.76v-3.4h3.76v-1.63h-3.76v-3.4h3.76v-1.63h-3.76v-3.42h3.76v-1.62h-3.76v-3.4zm-5.38 23.07h-27.64v-27.64h27.64z" stroke="#fff" stroke-opacity="0" fill="#fff"/><use xlink:href="#w" transform="matrix(1,0,0,1,943,460) translate(0 17.77777777777778)"/><path d="M1121.47 522a2 2 0 0 1 2-2h216a2 2 0 0 1 2 2v236a2 2 0 0 1-2 2h-216a2 2 0 0 1-2-2z" fill="#cfe4ff"/><use xlink:href="#h" transform="matrix(1,0,0,1,1137.4736842105262,536) translate(0 16.69921875)"/><use xlink:href="#x" transform="matrix(1,0,0,1,1137.4736842105262,536) translate(54.0791015625 16.69921875)"/><use xlink:href="#j" transform="matrix(1,0,0,1,1137.4736842105262,536) translate(145.93359375 16.69921875)"/><use xlink:href="#y" transform="matrix(1,0,0,1,1137.4736842105262,536) translate(0 37.79296875)"/><use xlink:href="#l" transform="matrix(1,0,0,1,1137.4736842105262,536) translate(0 58.88671875)"/><use xlink:href="#z" transform="matrix(1,0,0,1,1137.4736842105262,536) translate(0 79.98046875)"/><use xlink:href="#A" transform="matrix(1,0,0,1,1137.4736842105262,536) translate(59.6953125 79.98046875)"/><use xlink:href="#B" transform="matrix(1,0,0,1,1137.4736842105262,536) translate(94.025390625 79.98046875)"/><use xlink:href="#n" transform="matrix(1,0,0,1,1137.4736842105262,536) translate(0 101.07421875)"/><use xlink:href="#A" transform="matrix(1,0,0,1,1137.4736842105262,536) translate(38.4697265625 101.07421875)"/><use xlink:href="#C" transform="matrix(1,0,0,1,1137.4736842105262,536) translate(72.7998046875 101.07421875)"/><use xlink:href="#D" transform="matrix(1,0,0,1,1137.4736842105262,536) translate(0 122.16796875)"/><use xlink:href="#E" transform="matrix(1,0,0,1,1137.4736842105262,536) translate(52.6376953125 122.16796875)"/><use xlink:href="#F" transform="matrix(1,0,0,1,1137.4736842105262,536) translate(98.2001953125 122.16796875)"/><use xlink:href="#r" transform="matrix(1,0,0,1,1137.4736842105262,536) translate(118.6259765625 122.16796875)"/><use xlink:href="#G" transform="matrix(1,0,0,1,1137.4736842105262,536) translate(0 143.26171875)"/><path d="M320 340h120v120H320V340z" stroke="#000" stroke-opacity="0" fill="url(#H)"/><path d="M413.47 413.46c3.87 1.15 7.57 4.2 7.57 9.82 0 7.52-6.1 10-9.38 10.24h-24.04l-12.27 7.5c-.33.18-.66.26-1 .26-.3 0-.64-.08-.97-.25l-33.75-20.64c-.58-.34-.9-1-.9-1.66v-39.38c0-.66.32-1.24.9-1.57l29.96-18.83c.57-.33 1.3-.33 1.88 0 .66.33 1 .9 1 1.65v16.84c0 .66-.34 1.24-.9 1.65l-14.1 8.85v22.2l14.83 8.92c1-2.4 2.8-4.2 5.44-5.28v-.1c0-1.9.4-3.7 1.23-5.53l-6.5-8.17v11.23h-3.7v-24.36h3.7v9.83l8.4-9.83h4.2l-9.47 11.9 5.2 6.5c1.3-1.72 3.03-3.2 4.93-3.95 2.46-1.07 4.93-1.4 7.4-1v-12.37l-15.97-8.84c-.57-.32-.9-.9-.9-1.64v-16.84c0-.66.33-1.32.9-1.65.58-.33 1.32-.33 1.9 0l31.86 18.74c.57.42.98 1 .98 1.66v30.38c.74 1 1.32 2.23 1.57 3.72zm-39.1 23.78l6.25-3.9c-4.77-.48-8.56-4.03-9.05-8.74 0-.4-.1-.9-.1-1.32v-.25l-16.86-10.15c-.5-.33-.9-1-.9-1.65v-24.36c0-.66.33-1.24.9-1.57l14.17-8.83V364l-26.26 16.43v37.32zm37.12-7.44c.5-.08 5.75-.74 5.75-6.52 0-4.87-4.03-6.1-5.84-6.44-.98-.16-1.64-1-1.56-1.98-.16-2.15-1.07-3.63-2.55-4.05-1.08-.3-2.3.18-3.05 1.17-.42.58-1.07.83-1.8.74-.67-.07-1.25-.56-1.5-1.22-.65-1.82-1.56-3.4-2.7-4.55-1.08-1.07-3.55-3.05-7-3.05-1.25 0-2.64.25-4.04.83-3.2 1.4-5.76 5.37-5.76 9 0 .42 0 .83.1 1.24.07.9-.5 1.82-1.4 2.07-2.24.5-4.87 2.07-4.87 6.28v.9c.4 3.15 3.2 5.54 6.5 5.54zm-15.57-44.58c.58.33.9 1 .9 1.65v14.62c1.5.65 2.8 1.56 4.04 2.8 1 .98 1.9 2.14 2.55 3.54 1.4-.82 3.05-1.07 4.7-.66v-26.75l-28.16-16.6v12.56z" stroke="#000" stroke-opacity="0" fill="#fff"/><use xlink:href="#I" transform="matrix(1,0,0,1,290,469) translate(36.525 14.4)"/><use xlink:href="#J" transform="matrix(1,0,0,1,290,469) translate(107.475 14.4)"/><path d="M418 1105.42l57.98 8.62v5.1c0 7.53-25.98 13.63-58 13.63-32 0-57.98-6.1-57.98-13.64v-5.53z" fill="#8c3123"/><path d="M418.02 1142.13c24.2 0 44.93-3.54 53.58-8.5l2.88-4.78 1.15-4.4v5.45l-19 81c0 5.08-17.3 9.1-38.6 9.1-21.33 0-38.6-4.02-38.6-9.1l-19.02-81v-5.35l4.38 9.27c8.76 4.87 29.27 8.3 53.24 8.3z" fill="#8c3123"/><path d="M418 1100c32 0 58 6.12 58 13.62 0 7.5-26 13.57-58 13.57s-58-6.02-58-13.58c0-7.56 26-13.62 58-13.62z" fill="#e05243"/><path d="M418 1136.6c29.84 0 54.4-5.2 57.62-12.06l-19.02 81c0 5.05-17.3 9.1-38.6 9.1-21.33 0-38.6-4.05-38.6-9.1l-19.03-81c3.23 6.85 27.77 12.07 57.62 12.07z" fill="#e05243"/><path d="M404.35 1144.38h25.1v24.96h-25.1v-24.96zM396.75 1178.17c6.84 0 12.4 5.5 12.4 12.3 0 6.8-5.56 12.3-12.4 12.3-6.83 0-12.38-5.5-12.38-12.3 0-6.8 5.55-12.3 12.38-12.3zM448.8 1202.2H424l12.4-22.94 12.4 22.94z" fill="#fff"/><use xlink:href="#K" transform="matrix(1,0,0,1,360,1220) translate(2.5061728395061778 17.77777777777778)"/><use xlink:href="#L" transform="matrix(1,0,0,1,360,1220) translate(74.11111111111111 17.77777777777778)"/><use xlink:href="#M" transform="matrix(1,0,0,1,360,1220) translate(37.660493827160494 44.44444444444444)"/><path d="M820 1114.73h120v78H820v-78z" fill="#876929"/><path d="M820 1114.73h120v72.67H820z" fill="#d9a741"/><path d="M853.3 1124.5h12.78v54.82H853.3v-54.8zM873.6 1124.5h12.78v54.82H873.6v-54.8zM893.9 1124.5h12.78v54.82H893.9v-54.8zM834.8 1140.03v23.77l10.96-11.88-10.95-11.9zM914.2 1140.03v23.77l10.97-11.88-10.96-11.9z" fill="#fff"/><use xlink:href="#N" transform="matrix(1,0,0,1,820,1192.732562719084) translate(2.5925925925925952 17.77777777777778)"/><use xlink:href="#O" transform="matrix(1,0,0,1,820,1192.732562719084) translate(55.679012345679006 17.77777777777778)"/><path d="M1359.07 1138.72c-.4-.52-.7-1.05-1-1.57-1.7-3.3-2.6-6.37-3.2-10.03-2.5-12.13-9.1-21.47-19.5-27.75-7.3-4.54-14.7-7.5-23.4-6.38-11.6 1.48-21.4 5.93-28.2 16.23-3.9 6.1-6.6 11.7-8.9 18.67-2.1 6.02-1.9 12.57-4.5 18.4v.02c-.6 1.22-1.2 2.18-1.9 3.3-1.8 2.9-4.2 5.5-5.5 8.56-3.2 7.6-1.4 11.96 5.7 15.7l2.3 1.06c8.3 3.4 27.8 7.68 39.8 2.97 3-.95 5.4-2 8.1-3.57 9.6-5.24 19.2-10.65 28.8-15.97 4.5-2.36 8.1-5.06 11.5-9 3.1-3.66 3-7.06-.1-10.64z" fill="#4b612c"/><path d="M1325.18 1097.23c5.34 1.96 9.6 4.5 13.97 8.4 3.02 2.47 11.2 11.13 13.08 21.92.18 1.64.36 3.27.62 4.83.27.73.63 1.3 1.07 1.88l.98 2.53s1.78 2.93 2.76 4.32c1.24 1.8 1.7 3.6.35 5.4-3.1 4.08-7.1 6.94-12 9.56l.44-5.3-3.2-1c-1.24 2.87-.44 5 2.58 6.55-2.85 1.55-5.42 2.94-7.92 4.25-7.74 4.25-15.4 8.58-23.13 12.75-5.96 3.2-11.75 4.5-18.42 4.33-7.74-.33-14.33-1.63-21.62-4.25-3.12-1.22-5.7-6.28-4.72-9.47.46-1.56 2.06-2.54 3.57-2.2 5.43.56 10.86 1.22 16.28 1.87 5.97.74 12.02 2.13 17.98 2.13 6.85 0 13.35-2.13 19.75-4.83-1.96.17-3.9.25-5.78.4-5.43.42-10.77.6-16.1 1.32-6.68.9-12.9-.57-19.23-2.2-5.16-1.15-9.25-4-12.2-8.5-1.14-1.8-1.86-3.77-.97-5.65.72.66 1.52 1.88 2.05 1.8.62-.08 1.7-1.14 2.05-2.04.8-2.2 1.33-4.5 1.95-6.8.98-4.32 2.05-8 3.48-12.25 2.75-7.2 5.78-14.4 10.5-20.6 1.77-2.45 3.47-4.4 5.78-6.46 2.77-2.53 6.42-3.35 10.06-3.76 4.18-.4 8.46-.16 12.82-.24.17 0 .44.24.7.32z" fill="#759c3e"/><path d="M1352.24 1127.57c-.88-2.02-1.73-3.64-2.82-5.54-1-1.43-2.05-2.5-3.46-3.48-6.28-4.48-14.9-2.86-19.24 3.56-3.56 5.1-5.2 10.93-6.14 17-.28 1.8-.5 3.63-.8 5.97-1.88-3.3-2.73-6.53-2.77-10.34-.34-7.32.68-14.4 5.17-20.5 3.17-4.35 6.95-7.92 12.5-8.7 1.55-.1 2.9-.05 4.44.15 1.7 1.5 3.72 2.73 5.03 4.5 3.67 4.64 6.03 9.24 7.76 14.94.17.83.27 1.58.34 2.45z" fill="#b7ca9d"/><path d="M1325.15 1097.23c-6.15 1.74-9.72 6.42-12.65 11.8-4.2 7.72-7.28 15.87-7.1 24.84.02 5.43.98 10 3.12 14.94.22.5.37 1.05.66 1.86-2.26.1-4.23-.92-5.46-2.88-2.34-3.48-3.35-7.12-3.15-11.36.24-11.58 2.44-22.72 9.84-32.07 1.7-2.06 3.28-3.75 5.3-5.54 2-1.84 4.34-2.65 7-2.5z" fill="#b7ca9d"/><path d="M1354.88 1136.8c0 2.86-1.92 4.38-3.77 5.9-9.38 7.7-20.3 11.74-31.93 13.94-5.15.98-10.38 1.85-15.62 2.5-6.3.78-12.23-1.5-18.24-3.1-2.45-.65-4.84-1.45-7.38-2.2 0-.28 0-.53.08-.8 1.15-.1 2.16-.1 3.3 0 4.86.85 9.63 2.13 14.48 2.63 4.7.5 8.77.5 13.47 0 8.77-.93 16.16-2.68 24.47-5.88 4.85-2 8.77-3.96 13.24-6.62 3.38-1.95 6.54-4.4 6.92-8.9zM1343.25 1149.8c2.33-1.42 4.6-2.96 7-4.23 1.1-.35 2.1-.48 3.24-.44l.22.58-7.27 5.06z" fill="#b7ca9d"/><use xlink:href="#P" transform="matrix(1,0,0,1,1261.4736842105262,1180) translate(18.549382716049383 17.77777777777778)"/><use xlink:href="#Q" transform="matrix(1,0,0,1,1261.4736842105262,1180) translate(20.987654320987655 44.44444444444444)"/><use xlink:href="#R" transform="matrix(1,0,0,1,1261.4736842105262,1180) translate(4.4135802469135825 71.11111111111111)"/><use xlink:href="#S" transform="matrix(1,0,0,1,1261.4736842105262,1180) translate(50.03086419753087 71.11111111111111)"/><path d="M476 446a6 6 0 0 1 6-6h348a6 6 0 0 1 6 6v388a6 6 0 0 1-6 6H482a6 6 0 0 1-6-6z" stroke="#d86613" fill="#fff" fill-opacity="0"/><path d="M476 440h56v56h-56v-56z" stroke="#fff" stroke-opacity="0" fill="#d86613"/><path d="M523.2 458.75v-1.58h-3.76v-4.6h-4.8v-3.77h-1.62v3.76h-3.4v-3.76h-1.63v3.76h-3.4v-3.76H503v3.76h-3.42v-3.76h-1.6v3.76h-3.43v-3.76h-1.57v3.76h-4.42v4.57h-3.76v1.62h3.76v3.4h-3.76v1.63h3.76v3.4h-3.76v1.63h3.76v3.42h-3.76v1.62h3.76v3.4h-3.76v1.63h3.76v4.57h4.42v3.76h1.57v-3.76h3.42v3.76h1.6v-3.76H503v3.76h1.6v-3.76h3.4v3.76h1.6v-3.76h3.42v3.76h1.62v-3.76h4.8v-4.57h3.76v-1.62h-3.76v-3.4h3.76v-1.63h-3.76v-3.4h3.76v-1.63h-3.76v-3.42h3.76v-1.62h-3.76v-3.4zm-5.38 23.07h-27.64v-27.64h27.64z" stroke="#fff" stroke-opacity="0" fill="#fff"/><use xlink:href="#T" transform="matrix(1,0,0,1,547,460) translate(0 17.77777777777778)"/><path d="M564.46 1165.23H469.2v-3h95.26zm234.92 0h-76.15v-3h76.15z" stroke="#326ce5" stroke-width=".05" fill="#326ce5"/><path d="M469.23 1165.23h-1.9l.7-3h1.2z" fill="#326ce5"/><path d="M469.25 1165.26h-1.94l.72-3.05h1.23zm-1.2-3l-.68 2.95h1.83v-2.94z" stroke="#326ce5" stroke-width=".05" fill="#326ce5"/><path d="M815.15 1163.73l-14.27 4.64v-9.27z" fill="#326ce5"/><path d="M820 1163.73l-20.62 6.7v-13.4zm-17.62 2.57l7.9-2.57-7.9-2.57z" stroke="#326ce5" stroke-width=".05" fill="#326ce5"/><use xlink:href="#U" transform="matrix(1,0,0,1,564.4619120744866,1153.0658960524172) translate(0 14.222222222222223)"/><use xlink:href="#V" transform="matrix(1,0,0,1,564.4619120744866,1153.0658960524172) translate(112.44444444444446 14.222222222222223)"/><path d="M1497.6 1138.72c-.4-.52-.7-1.05-1-1.57-1.7-3.3-2.6-6.37-3.2-10.03-2.5-12.13-9.1-21.47-19.5-27.75-7.3-4.54-14.7-7.5-23.4-6.38-11.6 1.48-21.4 5.93-28.2 16.23-3.9 6.1-6.6 11.7-8.9 18.67-2.1 6.02-1.9 12.57-4.5 18.4v.02c-.6 1.22-1.2 2.18-1.9 3.3-1.8 2.9-4.2 5.5-5.5 8.56-3.2 7.6-1.4 11.96 5.7 15.7l2.3 1.06c8.3 3.4 27.8 7.68 39.8 2.97 3-.95 5.4-2 8.1-3.57 9.6-5.24 19.2-10.65 28.8-15.97 4.5-2.36 8.1-5.06 11.5-9 3.1-3.66 3-7.06-.1-10.64z" fill="#4b612c"/><path d="M1463.7 1097.23c5.34 1.96 9.62 4.5 13.97 8.4 3.03 2.47 11.22 11.13 13.1 21.92.16 1.64.34 3.27.6 4.83.28.73.63 1.3 1.08 1.88l.97 2.53s1.78 2.93 2.76 4.32c1.25 1.8 1.7 3.6.36 5.4-3.12 4.08-7.12 6.94-12 9.56l.43-5.3-3.2-1c-1.25 2.87-.45 5 2.58 6.55-2.85 1.55-5.43 2.94-7.92 4.25-7.74 4.25-15.4 8.58-23.13 12.75-5.97 3.2-11.75 4.5-18.42 4.33-7.75-.33-14.33-1.63-21.63-4.25-3.1-1.22-5.7-6.28-4.7-9.47.43-1.56 2.04-2.54 3.55-2.2 5.43.56 10.85 1.22 16.28 1.87 5.96.74 12 2.13 17.97 2.13 6.86 0 13.35-2.13 19.76-4.83-1.95.17-3.9.25-5.78.4-5.42.42-10.76.6-16.1 1.32-6.67.9-12.9-.57-19.22-2.2-5.16-1.15-9.26-4-12.2-8.5-1.15-1.8-1.86-3.77-.97-5.65.7.66 1.5 1.88 2.05 1.8.62-.08 1.7-1.14 2.04-2.04.8-2.2 1.34-4.5 1.96-6.8.98-4.32 2.05-8 3.47-12.25 2.76-7.2 5.8-14.4 10.5-20.6 1.78-2.45 3.47-4.4 5.78-6.46 2.76-2.53 6.4-3.35 10.06-3.76 4.17-.4 8.44-.16 12.8-.24.18 0 .45.24.7.32z" fill="#759c3e"/><path d="M1490.77 1127.57c-.88-2.02-1.73-3.64-2.82-5.54-1-1.43-2.05-2.5-3.46-3.48-6.3-4.48-14.9-2.86-19.25 3.56-3.57 5.1-5.2 10.93-6.14 17-.28 1.8-.5 3.63-.8 5.97-1.88-3.3-2.72-6.53-2.76-10.34-.35-7.32.67-14.4 5.15-20.5 3.17-4.35 6.95-7.92 12.5-8.7 1.54-.1 2.88-.05 4.44.15 1.7 1.5 3.7 2.73 5 4.5 3.68 4.64 6.05 9.24 7.78 14.94.17.83.28 1.58.35 2.45z" fill="#b7ca9d"/><path d="M1463.68 1097.23c-6.15 1.74-9.72 6.42-12.65 11.8-4.2 7.72-7.28 15.87-7.1 24.84 0 5.43.97 10 3.1 14.94.24.5.38 1.05.68 1.86-2.26.1-4.23-.92-5.46-2.88-2.33-3.48-3.34-7.12-3.14-11.36.24-11.58 2.43-22.72 9.84-32.07 1.7-2.06 3.27-3.75 5.3-5.54 1.98-1.84 4.32-2.65 6.98-2.5z" fill="#b7ca9d"/><path d="M1493.4 1136.8c0 2.86-1.9 4.38-3.76 5.9-9.4 7.7-20.32 11.74-31.94 13.94-5.16.98-10.4 1.85-15.62 2.5-6.3.78-12.24-1.5-18.24-3.1-2.46-.65-4.85-1.45-7.4-2.2 0-.28 0-.53.1-.8 1.14-.1 2.14-.1 3.3 0 4.85.85 9.62 2.13 14.47 2.63 4.7.5 8.78.5 13.47 0 8.78-.93 16.16-2.68 24.48-5.88 4.84-2 8.77-3.96 13.23-6.62 3.4-1.95 6.55-4.4 6.93-8.9zM1481.78 1149.8c2.32-1.42 4.6-2.96 7-4.23 1.1-.35 2.1-.48 3.24-.44l.23.58-7.28 5.06z" fill="#b7ca9d"/><use xlink:href="#P" transform="matrix(1,0,0,1,1400,1180) translate(18.549382716049383 17.77777777777778)"/><use xlink:href="#W" transform="matrix(1,0,0,1,1400,1180) translate(-4.876543209876544 44.44444444444444)"/><use xlink:href="#R" transform="matrix(1,0,0,1,1400,1180) translate(4.4135802469135825 71.11111111111111)"/><use xlink:href="#S" transform="matrix(1,0,0,1,1400,1180) translate(50.03086419753087 71.11111111111111)"/><path d="M605.83 701.58c-.57.06-1.02.17-1.48.4l-19.72 9.72c-1.08.5-1.82 1.42-2.05 2.62l-4.9 21.88c-.2 1.02-.04 2.04.53 2.95.06.12.12.17.23.3l13.64 17.5c.74.96 1.77 1.47 2.96 1.47h21.94c1.2 0 2.22-.5 2.95-1.48l13.65-17.5c.73-.97 1.02-2.1.73-3.3l-4.88-21.82c-.23-1.2-.97-2.1-2.05-2.62l-19.72-9.72c-.63-.28-1.2-.45-1.82-.4z" stroke="#000" stroke-opacity="0" stroke-width="3.83" fill="#326ce5"/><path d="M605.82 700c-.6.06-1.08.18-1.56.42l-20.82 10.26c-1.14.54-1.92 1.5-2.16 2.76l-5.16 23.1c-.24 1.08-.06 2.16.54 3.12.06.12.12.18.24.3l14.4 18.48c.78 1.02 1.86 1.56 3.12 1.56h23.16c1.26 0 2.34-.54 3.12-1.56l14.4-18.48c.78-1.02 1.08-2.22.78-3.42l-5.16-23.1c-.24-1.26-1.02-2.22-2.16-2.76l-20.82-10.26c-.66-.3-1.26-.48-1.92-.42zm0 1.62c.66-.06 1.2.06 1.8.36l19.8 9.72c1.02.54 1.74 1.44 2.04 2.64l4.86 21.84c.24 1.2 0 2.28-.72 3.24l-13.68 17.52c-.72.96-1.74 1.5-2.94 1.5h-21.96c-1.2 0-2.22-.54-2.94-1.5l-13.68-17.52c-.06-.06-.12-.18-.18-.3-.6-.9-.78-1.86-.54-2.94l4.86-21.84c.3-1.2.96-2.1 2.04-2.64l19.8-9.72c.48-.24.9-.36 1.44-.42z" stroke="#000" stroke-opacity="0" stroke-width="3.83" fill="#fff"/><path d="M605.44 752.2c0 .48-.17.85-.53 1.12-.34.26-.83.4-1.47.4-.6 0-1.1-.12-1.43-.32-.33-.22-.55-.54-.65-1l.73-.13c.07.27.22.47.43.6.23.13.54.2.93.2.42 0 .73-.08.92-.2.2-.14.3-.34.3-.6 0-.2-.07-.37-.2-.5-.14-.12-.36-.22-.66-.3l-.6-.17c-.47-.12-.8-.25-1-.37-.22-.12-.37-.27-.48-.44-.12-.18-.17-.4-.17-.65 0-.46.16-.82.48-1.06.32-.26.8-.38 1.4-.38.56 0 1 .1 1.3.3.34.2.54.52.63.95l-.75.1c-.03-.23-.15-.4-.36-.52-.2-.13-.46-.18-.8-.18-.37 0-.65.05-.82.17-.18.12-.27.3-.27.53 0 .14.04.26.1.36.08.1.2.17.33.24.15.07.45.16.9.27.45.1.77.22.96.32.2.1.34.2.45.32.1.1.2.25.25.4.06.15.1.33.1.52zM607.68 753.7c-.5 0-.87-.13-1.12-.4-.25-.27-.38-.64-.38-1.12 0-.52.17-.93.5-1.2.34-.3.9-.45 1.64-.47h1.1v-.3c0-.4-.07-.7-.24-.88-.17-.18-.44-.27-.8-.27-.38 0-.65.07-.82.2-.16.13-.27.33-.3.6l-.86-.07c.14-.9.8-1.37 2-1.37.6 0 1.08.15 1.4.45.3.3.47.72.47 1.27v2.2c0 .26.03.45.1.58.06.12.18.2.36.2.08 0 .17-.02.27-.05v.54c-.2.03-.42.06-.63.06-.3 0-.53-.08-.67-.25-.14-.15-.22-.4-.24-.76h-.03c-.2.38-.45.66-.73.83-.28.16-.62.24-1.02.24zm.2-.63c.3 0 .56-.07.8-.2.23-.15.4-.35.55-.6.14-.24.2-.5.2-.76v-.4h-.9c-.4 0-.68.06-.88.13-.2.07-.36.2-.46.35-.12.16-.17.37-.17.62 0 .28.07.5.22.64.14.15.35.23.62.23z" stroke="#000" stroke-opacity="0" fill="#fff"/><path d="M606 711l-13.44 6.18v9.24c0 8.54 5.73 16.53 13.44 18.46 7.7-1.93 13.44-9.92 13.44-18.46v-9.24zm0 6.55c1.75 0 3.3 1.08 3.98 2.7.67 1.67.3 3.6-.94 4.85-1.24 1.26-3.07 1.66-4.68.95-1.6-.68-2.66-2.27-2.66-4.06 0-2.5 1.93-4.45 4.3-4.45zm8.06 18.32c0 .1-.02.2-.08.3-.1.15-.2.3-.32.45-1.88 2.7-4.57 4.7-7.66 5.7-3.1-1-5.78-3-7.66-5.7-.1-.14-.22-.27-.32-.44-.06-.1-.08-.2-.08-.3v-2.48c0-3.38 5.37-5.1 8.06-5.1 2.7 0 8.06 1.72 8.06 5.1z" stroke="#000" stroke-opacity="0" stroke-width="3.77" fill="#fff"/><g><use xlink:href="#X" transform="matrix(1,0,0,1,546,769) translate(23.02469135802469 17.77777777777778)"/><use xlink:href="#Y" transform="matrix(1,0,0,1,546,769) translate(19.876543209876544 44.44444444444444)"/></g><path d="M948.14 701.58c-.56.06-1.02.17-1.47.4l-19.73 9.72c-1.08.5-1.82 1.42-2.04 2.62L920 736.2c-.22 1.02-.05 2.04.52 2.95.06.12.12.17.23.3l13.64 17.5c.73.96 1.75 1.47 2.95 1.47h21.93c1.2 0 2.22-.5 2.96-1.48l13.64-17.5c.74-.97 1.02-2.1.74-3.3l-4.9-21.82c-.22-1.2-.95-2.1-2.03-2.62l-19.74-9.72c-.62-.28-1.2-.45-1.82-.4z" stroke="#000" stroke-opacity="0" stroke-width="3.83" fill="#326ce5"/><path d="M948.14 700c-.6.06-1.08.18-1.56.42l-20.82 10.26c-1.14.54-1.92 1.5-2.16 2.76l-5.16 23.1c-.24 1.08-.06 2.16.54 3.12.06.12.12.18.24.3l14.4 18.48c.78 1.02 1.86 1.56 3.12 1.56h23.16c1.26 0 2.34-.54 3.12-1.56l14.4-18.48c.78-1.02 1.08-2.22.78-3.42l-5.16-23.1c-.24-1.26-1.02-2.22-2.16-2.76l-20.82-10.26c-.66-.3-1.26-.48-1.92-.42zm0 1.62c.66-.06 1.2.06 1.8.36l19.8 9.72c1.02.54 1.74 1.44 2.04 2.64l4.86 21.84c.24 1.2 0 2.28-.72 3.24l-13.68 17.52c-.72.96-1.74 1.5-2.94 1.5h-21.96c-1.2 0-2.22-.54-2.94-1.5l-13.68-17.52c-.06-.06-.12-.18-.18-.3-.6-.9-.78-1.86-.54-2.94l4.86-21.84c.3-1.2.96-2.1 2.04-2.64l19.8-9.72c.48-.24.9-.36 1.44-.42z" stroke="#000" stroke-opacity="0" stroke-width="3.83" fill="#fff"/><path d="M947.76 752.2c0 .48-.18.85-.53 1.12-.35.26-.85.4-1.48.4-.62 0-1.1-.12-1.43-.32-.33-.22-.55-.54-.65-1l.73-.13c.07.27.2.47.43.6.22.13.53.2.92.2.42 0 .72-.08.9-.2.2-.14.3-.34.3-.6 0-.2-.06-.37-.2-.5-.13-.12-.35-.22-.64-.3l-.6-.17c-.46-.12-.8-.25-1-.37-.2-.12-.35-.27-.47-.44-.1-.18-.17-.4-.17-.65 0-.46.16-.82.5-1.06.3-.26.78-.38 1.4-.38.54 0 .98.1 1.3.3.32.2.53.52.6.95l-.73.1c-.05-.23-.17-.4-.37-.52-.2-.13-.47-.18-.8-.18-.37 0-.65.05-.83.17-.17.12-.26.3-.26.53 0 .14.03.26.1.36.08.1.2.17.33.24.15.07.44.16.9.27.45.1.76.22.95.32.2.1.35.2.46.32.12.1.2.25.27.4.06.15.1.33.1.52zM950 753.7c-.5 0-.88-.13-1.13-.4-.25-.27-.37-.64-.37-1.12 0-.52.16-.93.5-1.2.34-.3.88-.45 1.64-.47h1.1v-.3c0-.4-.08-.7-.25-.88-.18-.18-.45-.27-.82-.27-.36 0-.63.07-.8.2-.17.13-.27.33-.3.6l-.86-.07c.14-.9.8-1.37 1.98-1.37.63 0 1.1.15 1.4.45.33.3.5.72.5 1.27v2.2c0 .26.02.45.08.58.06.12.2.2.37.2.08 0 .17-.02.27-.05v.54c-.2.03-.42.06-.64.06-.3 0-.53-.08-.67-.25-.12-.15-.2-.4-.22-.76h-.03c-.2.38-.46.66-.74.83-.27.16-.6.24-1 .24zm.18-.63c.3 0 .57-.07.8-.2.25-.15.43-.35.56-.6.14-.24.2-.5.2-.76v-.4h-.9c-.38 0-.68.06-.88.13-.2.07-.35.2-.46.35-.1.16-.15.37-.15.62 0 .28.07.5.2.64.16.15.36.23.63.23z" stroke="#000" stroke-opacity="0" fill="#fff"/><path d="M948.32 711l-13.44 6.18v9.24c0 8.54 5.72 16.53 13.44 18.46 7.7-1.93 13.43-9.92 13.43-18.46v-9.24zm0 6.55c1.74 0 3.3 1.08 3.97 2.7.67 1.67.3 3.6-.95 4.85-1.23 1.26-3.06 1.66-4.67.95-1.62-.68-2.66-2.27-2.66-4.06 0-2.5 1.93-4.45 4.3-4.45zm8.06 18.32c0 .1-.03.2-.08.3l-.32.45c-1.88 2.7-4.57 4.7-7.66 5.7-3.1-1-5.78-3-7.66-5.7-.1-.14-.22-.27-.33-.44-.05-.1-.08-.2-.08-.3v-2.48c0-3.38 5.38-5.1 8.07-5.1 2.68 0 8.06 1.72 8.06 5.1z" stroke="#000" stroke-opacity="0" stroke-width="3.77" fill="#fff"/><g><use xlink:href="#X" transform="matrix(1,0,0,1,888.3157894736842,769) translate(23.02469135802469 17.77777777777778)"/><use xlink:href="#Y" transform="matrix(1,0,0,1,888.3157894736842,769) translate(19.876543209876544 44.44444444444444)"/></g><path d="M1151.3 701.58c-.57.06-1.02.17-1.47.4l-19.73 9.72c-1.08.5-1.82 1.42-2.04 2.62l-4.9 21.88c-.22 1.02-.05 2.04.52 2.95.06.12.1.17.23.3l13.65 17.5c.74.96 1.76 1.47 2.95 1.47h21.94c1.2 0 2.22-.5 2.96-1.48l13.64-17.5c.74-.97 1.02-2.1.74-3.3l-4.9-21.82c-.22-1.2-.96-2.1-2.04-2.62l-19.72-9.72c-.62-.28-1.2-.45-1.82-.4z" stroke="#000" stroke-opacity="0" stroke-width="3.83" fill="#326ce5"/><path d="M1151.3 700c-.6.06-1.1.18-1.57.42l-20.82 10.26c-1.13.54-1.9 1.5-2.15 2.76l-5.16 23.1c-.25 1.08-.07 2.16.53 3.12.06.12.12.18.24.3l14.4 18.48c.78 1.02 1.86 1.56 3.12 1.56h23.15c1.26 0 2.34-.54 3.12-1.56l14.4-18.48c.78-1.02 1.08-2.22.78-3.42l-5.16-23.1c-.25-1.26-1.03-2.22-2.17-2.76l-20.82-10.26c-.65-.3-1.25-.48-1.9-.42zm0 1.62c.65-.06 1.2.06 1.8.36l19.8 9.72c1 .54 1.73 1.44 2.03 2.64l4.86 21.84c.23 1.2 0 2.28-.73 3.24l-13.68 17.52c-.73.96-1.75 1.5-2.95 1.5h-21.96c-1.2 0-2.23-.54-2.95-1.5l-13.68-17.52c-.06-.06-.12-.18-.18-.3-.6-.9-.8-1.86-.55-2.94l4.86-21.84c.3-1.2.97-2.1 2.05-2.64l19.8-9.72c.48-.24.9-.36 1.44-.42z" stroke="#000" stroke-opacity="0" stroke-width="3.83" fill="#fff"/><path d="M1150.92 752.2c0 .48-.18.85-.54 1.12-.35.26-.84.4-1.48.4-.6 0-1.1-.12-1.43-.32-.33-.22-.54-.54-.64-1l.72-.13c.07.27.22.47.44.6.2.13.52.2.9.2.42 0 .73-.08.92-.2.2-.14.3-.34.3-.6 0-.2-.07-.37-.2-.5-.14-.12-.36-.22-.66-.3l-.6-.17c-.46-.12-.8-.25-1-.37-.2-.12-.36-.27-.47-.44-.12-.18-.18-.4-.18-.65 0-.46.16-.82.48-1.06.33-.26.8-.38 1.42-.38.54 0 .97.1 1.3.3.32.2.53.52.6.95l-.73.1c-.06-.23-.18-.4-.38-.52-.2-.13-.47-.18-.8-.18-.38 0-.65.05-.83.17-.2.12-.28.3-.28.53 0 .14.04.26.1.36.1.1.2.17.34.24.14.07.44.16.9.27.44.1.76.22.95.32.2.1.36.2.47.32.1.1.2.25.26.4.06.15.1.33.1.52zM1153.15 753.7c-.5 0-.87-.13-1.12-.4-.25-.27-.38-.64-.38-1.12 0-.52.17-.93.5-1.2.35-.3.9-.45 1.64-.47h1.1v-.3c0-.4-.08-.7-.25-.88-.17-.18-.44-.27-.8-.27-.37 0-.64.07-.8.2-.18.13-.28.33-.32.6l-.85-.07c.14-.9.8-1.37 1.98-1.37.62 0 1.1.15 1.4.45.32.3.48.72.48 1.27v2.2c0 .26.04.45.1.58.06.12.2.2.37.2.08 0 .17-.02.27-.05v.54c-.2.03-.4.06-.63.06-.3 0-.53-.08-.67-.25-.14-.15-.22-.4-.23-.76h-.03c-.2.38-.45.66-.73.83-.28.16-.62.24-1.02.24zm.2-.63c.3 0 .56-.07.8-.2.23-.15.42-.35.55-.6.14-.24.2-.5.2-.76v-.4h-.9c-.38 0-.68.06-.88.13-.2.07-.35.2-.46.35-.1.16-.16.37-.16.62 0 .28.08.5.22.64.14.15.35.23.62.23z" stroke="#000" stroke-opacity="0" fill="#fff"/><path d="M1151.47 711l-13.43 6.18v9.24c0 8.54 5.72 16.53 13.43 18.46 7.72-1.93 13.44-9.92 13.44-18.46v-9.24zm0 6.55c1.75 0 3.3 1.08 3.98 2.7.67 1.67.3 3.6-.94 4.85-1.22 1.26-3.05 1.66-4.67.95-1.6-.68-2.66-2.27-2.66-4.06 0-2.5 1.94-4.45 4.3-4.45zm8.07 18.32c0 .1-.03.2-.08.3l-.33.45c-1.88 2.7-4.57 4.7-7.66 5.7-3.1-1-5.78-3-7.66-5.7-.1-.14-.2-.27-.3-.44-.06-.1-.1-.2-.1-.3v-2.48c0-3.38 5.4-5.1 8.07-5.1 2.7 0 8.07 1.72 8.07 5.1z" stroke="#000" stroke-opacity="0" stroke-width="3.77" fill="#fff"/><g><use xlink:href="#X" transform="matrix(1,0,0,1,1091.4736842105262,769) translate(23.02469135802469 17.77777777777778)"/><use xlink:href="#Y" transform="matrix(1,0,0,1,1091.4736842105262,769) translate(19.876543209876544 44.44444444444444)"/></g><path d="M1196.28 730H1444a6 6 0 0 1 6 6v356.6" stroke="#fe7070" fill="none"/><path d="M1181.5 730l14.28-4.63v9.26z" stroke="#fe7070" fill="#fe7070"/><path d="M1450.5 1093l-1 .2v-.6h1z" stroke="#fe7070" stroke-width=".05" fill="#fe7070"/><path d="M993.12 730h37.14a6 6 0 0 1 6 6v189.2a6 6 0 0 0 6 6h263.2a6 6 0 0 1 6 6v155.4" stroke="#fe7070" fill="none"/><path d="M978.35 730l14.27-4.63v9.26z" stroke="#fe7070" fill="#fe7070"/><path d="M1311.97 1093l-1 .2v-.6h1z" stroke="#fe7070" stroke-width=".05" fill="#fe7070"/><path d="M650.8 730h22.62a6 6 0 0 1 6 6v189.2a6 6 0 0 0 6 6h620.05a6 6 0 0 1 6 6v155.4" stroke="#fe7070" fill="none"/><path d="M636.04 730l14.26-4.63v9.26z" stroke="#fe7070" fill="#fe7070"/><path d="M1311.97 1093l-1 .2v-.6h1z" stroke="#fe7070" stroke-width=".05" fill="#fe7070"/><path d="M574.5 640H424a6 6 0 0 0-6 6v433.38" stroke="#326ce5" stroke-width="3" fill="none"/><path d="M576 641.5h-1.54v-3H576z" stroke="#326ce5" stroke-width=".05" fill="#326ce5"/><path d="M418 1095.15l-4.63-14.27h9.26z" stroke="#326ce5" stroke-width="3" fill="#326ce5"/><path d="M916.82 640H856a6 6 0 0 0-6 6v317.7a6 6 0 0 1-6 6H424a6 6 0 0 0-6 6v103.68" stroke="#326ce5" stroke-width="3" fill="none"/><path d="M918.32 641.5h-1.54v-3h1.54z" stroke="#326ce5" stroke-width=".05" fill="#326ce5"/><path d="M418 1095.15l-4.63-14.27h9.26z" stroke="#326ce5" stroke-width="3" fill="#326ce5"/><path d="M960.62 1158.18h264.85a6 6 0 0 0 6-6V780.62" stroke="#326ce5" stroke-width="3" fill="none"/><path d="M944.85 1158.18l14.27-4.64v9.27zM1231.47 764.85l4.64 14.27h-9.26z" stroke="#326ce5" stroke-width="3" fill="#326ce5"/><path d="M1523.63 580h120v120h-120V580z" stroke="#000" stroke-opacity="0" fill="url(#Z)"/><path d="M1608.04 655.96l11.17 10c2.38 2.18 2.53 5.88.4 8.3-1.17 1.3-2.75 1.94-4.32 1.94-1.42 0-2.84-.48-3.94-1.53l-10.94-9.84c-3.23 2.1-7 3.3-11.18 3.3-11.33 0-20.54-9.27-20.54-20.64 0-11.38 9.2-20.57 20.54-20.57 11.42 0 20.63 9.2 20.63 20.56 0 3.06-.63 5.88-1.8 8.46zm-48.8-30.97c1.1 0 1.88.88 1.88 1.93v52.5c0 1.04-.8 1.85-1.9 1.85h-13.06c-1.02 0-1.9-.8-1.9-1.86v-52.5c0-1.04.88-1.93 1.9-1.93zm13.14 22.5c0 9.35 7.55 16.93 16.84 16.93 9.37 0 16.93-7.58 16.93-16.94 0-9.28-7.56-16.86-16.93-16.86-9.3 0-16.84 7.58-16.84 16.85zm16.84-13.07c7.24 0 13.15 5.9 13.15 13.06 0 7.25-5.9 13.14-13.15 13.14-7.16 0-13.07-5.9-13.07-13.15 0-7.18 5.9-13.07 13.07-13.07zm-41.17 43.06h9.37v-48.72h-9.37zm74.94-65.57v48.7h-3.8V613.8h-9.35v15h-3.7v-16.85c0-1.05.78-1.94 1.9-1.94h13.05c1.03 0 1.9.88 1.9 1.93zm-33.78 45c5.2 0 9.37-4.2 9.37-9.44 0-5.17-4.18-9.36-9.38-9.36-5.1 0-9.37 4.2-9.37 9.35 0 5.23 4.26 9.43 9.37 9.43zm0-35.65h-3.7V602.5c0-1.05.8-1.86 1.9-1.86h13.06c1.02 0 1.9.8 1.9 1.86v20.64h-3.8v-18.7h-9.36zm-11.17 48.7h3.7v9.44c0 1.05-.8 1.86-1.9 1.86h-13.06c-1.04 0-1.9-.8-1.9-1.86v-18.78h3.78v16.85h9.37zm-9.37-37.5h-3.78v-16.84c0-1.05.86-1.86 1.9-1.86h13.06c1.1 0 1.88.8 1.88 1.86v7.5h-3.7v-5.65h-9.36zm29.9 41.3h3.8v5.64c0 1.05-.88 1.86-1.9 1.86h-13.07c-1.1 0-1.88-.8-1.88-1.86v-7.5h3.7v5.57h9.37zm18.27-2.02c.8-.88.7-2.25-.15-2.98l-10.55-9.5c-.8 1.2-1.73 2.24-2.76 3.2l10.38 9.45c.95.72 2.3.72 3.07-.17z" stroke="#000" stroke-opacity="0" fill="#fff"/><g><use xlink:href="#aa" transform="matrix(1,0,0,1,1493.633718640458,709) translate(49.29012345679012 17.77777777777778)"/><use xlink:href="#ab" transform="matrix(1,0,0,1,1493.633718640458,709) translate(27.685185185185176 44.44444444444444)"/><use xlink:href="#ac" transform="matrix(1,0,0,1,1493.633718640458,709) translate(53.02469135802469 71.11111111111111)"/></g><path d="M1408.88 641.5h-65.9v-3h65.9zm94.13 0h-46.77v-3H1503z" stroke="#326ce5" stroke-width=".05" fill="#326ce5"/><path d="M1343 641.5h-1.53v-3h1.54z" fill="#326ce5"/><path d="M1343.04 641.52h-1.6v-3.04h1.6zm-1.54-3v2.96h1.5v-2.96z" stroke="#326ce5" stroke-width=".05" fill="#326ce5"/><path d="M1518.78 640l-14.27 4.63v-9.26z" fill="#326ce5"/><path d="M1523.63 640l-20.62 6.7v-13.4zm-17.62 2.57l7.93-2.57-7.92-2.57z" stroke="#326ce5" stroke-width=".05" fill="#326ce5"/><g><use xlink:href="#ad" transform="matrix(1,0,0,1,1408.874664079813,618.6666666666666) translate(0 14.222222222222223)"/><use xlink:href="#ae" transform="matrix(1,0,0,1,1408.874664079813,618.6666666666666) translate(0 35.55555555555556)"/></g><path d="M1540 1092.73h87.27V1180H1540v-87.27z" stroke="#fff" stroke-opacity="0" stroke-width="2" fill="#d6242d"/><path d="M1596.82 1151.23l1.65-1.65 13.9 13.9-1.64 1.66-13.9-13.9zM1554.88 1109.27l1.64-1.64 15.43 15.43-1.64 1.63-15.4-15.43h-.02zM1558.37 1160.04l8.15-8.14 1.64 1.64-8.14 8.15-1.65-1.66zM1599.1 1119.3l8.14-8.14 1.65 1.65-8.16 8.15-1.64-1.64z" stroke="#fff" stroke-opacity="0" stroke-width="1.41" fill="#fff"/><path d="M1610.35 1135.22c-.23-5.45-1.82-10.05-5.02-14.47l-1.88 1.38c2.9 4 4.35 8.14 4.58 13.1h-2.34v2.3h2.33c-.2 5-1.66 9.16-4.58 13.2l1.88 1.34c3.22-4.44 4.82-9.05 5.02-14.53h2.33v-2.35zM1569.34 1116.6c4.02-2.9 8.17-4.35 13.13-4.56v2.24h2.33v-2.24c4.96.2 9.1 1.65 13.13 4.57l1.4-1.88c-4.45-3.2-9.04-4.8-14.53-5v-2.42h-2.33v2.4c-5.5.22-10.08 1.8-14.54 5.02zM1597.93 1156.24c-4.02 2.9-8.17 4.36-13.13 4.58v-2.34h-2.33v2.34c-4.96-.22-9.1-1.67-13.13-4.58l-1.4 1.88c4.45 3.22 9.03 4.8 14.53 5.02v2.33h2.33v-2.33c5.5-.2 10.08-1.8 14.54-5.02zM1561.94 1152.07l1.88-1.38c-2.93-4.02-4.38-8.2-4.58-13.17h2.34v-2.32h-2.34c.23-4.94 1.68-9.08 4.58-13.1l-1.88-1.37c-3.2 4.42-4.8 9.03-5.02 14.48h-2.33v2.33h2.32c.2 5.5 1.8 10.1 5.02 14.54zM1589.34 1120.95c-1.68-1.4-3.54-2.05-5.7-2.02-4.5 0-8.15 3.18-8.15 7.1v5.7h-2.34c-.65 0-1.16.53-1.16 1.15v16.3c0 .32.1.6.35.83.2.23.5.35.8.35h20.96c.66 0 1.17-.53 1.17-1.16v-16.32c0-.3-.12-.56-.33-.78-.23-.25-.5-.38-.83-.38h-2.32v-5.68c-.02-2.05-.86-3.8-2.44-5.1zm-11.52 5.1c0-2.65 2.63-4.8 5.8-4.8 1.6-.02 2.97.45 4.2 1.45 1.05.85 1.6 1.98 1.65 3.34v5.68h-11.63zm15.12 11.52h-3.5v2.32h3.5v2.3h-3.5v2.34h3.5v3.5h-18.62v-14h18.62z" stroke="#fff" stroke-opacity="0" stroke-width="2" fill="#fff"/><path d="M1582.47 1142.48v3.22h2.33v-3.22c.98-.35 1.68-1.05 2.04-2.04.64-1.77-.27-3.72-2.04-4.36-1.77-.64-3.73.27-4.37 2.04-.64 1.77.27 3.73 2.04 4.37zm1.16-4.44c.7 0 1.26.55 1.27 1.25 0 .68-.55 1.25-1.25 1.26-.7 0-1.26-.55-1.26-1.25v-.03c0-.68.55-1.23 1.23-1.23z" stroke="#fff" stroke-opacity="0" stroke-width="2" fill="#fff"/><g><use xlink:href="#af" transform="matrix(1,0,0,1,1510,1189) translate(8.413580246913583 17.77777777777778)"/><use xlink:href="#ag" transform="matrix(1,0,0,1,1510,1189) translate(64.33950617283949 17.77777777777778)"/><use xlink:href="#ah" transform="matrix(1,0,0,1,1510,1189) translate(30.234567901234563 44.44444444444444)"/></g><path d="M1313.47 776.38V864a6 6 0 0 0 6 6h258.16a6 6 0 0 1 6 6v216.23" stroke="#fe7070" fill="none"/><path d="M1313.47 761.62l4.64 14.26h-9.26z" stroke="#fe7070" fill="#fe7070"/><path d="M1584.13 1092.73h-1v-.5h1z" stroke="#fe7070" stroke-width=".05" fill="#fe7070"/><defs><path fill="#3a414a" d="M137 0h-34L2-248h35l83 218 83-218h36" id="ai"/><path fill="#3a414a" d="M30-248c87 1 191-15 191 75 0 78-77 80-158 76V0H30v-248zm33 125c57 0 124 11 124-50 0-59-68-47-124-48v98" id="aj"/><path fill="#3a414a" d="M212-179c-10-28-35-45-73-45-59 0-87 40-87 99 0 60 29 101 89 101 43 0 62-24 78-52l27 14C228-24 195 4 139 4 59 4 22-46 18-125c-6-104 99-153 187-111 19 9 31 26 39 46" id="ak"/><g id="a"><use transform="matrix(0.06172839506172839,0,0,0.06172839506172839,0,0)" xlink:href="#ai"/><use transform="matrix(0.06172839506172839,0,0,0.06172839506172839,14.814814814814813,0)" xlink:href="#aj"/><use transform="matrix(0.06172839506172839,0,0,0.06172839506172839,29.629629629629626,0)" xlink:href="#ak"/></g><path fill="#3a414a" d="M135-143c-3-34-86-38-87 0 15 53 115 12 119 90S17 21 10-45l28-5c4 36 97 45 98 0-10-56-113-15-118-90-4-57 82-63 122-42 12 7 21 19 24 35" id="al"/><path fill="#3a414a" d="M84 4C-5 8 30-112 23-190h32v120c0 31 7 50 39 49 72-2 45-101 50-169h31l1 190h-30c-1-10 1-25-2-33-11 22-28 36-60 37" id="am"/><path fill="#3a414a" d="M115-194c53 0 69 39 70 98 0 66-23 100-70 100C84 3 66-7 56-30L54 0H23l1-261h32v101c10-23 28-34 59-34zm-8 174c40 0 45-34 45-75 0-40-5-75-45-74-42 0-51 32-51 76 0 43 10 73 51 73" id="an"/><path fill="#3a414a" d="M117-194c89-4 53 116 60 194h-32v-121c0-31-8-49-39-48C34-167 62-67 57 0H25l-1-190h30c1 10-1 24 2 32 11-22 29-35 61-36" id="ao"/><path fill="#3a414a" d="M100-194c63 0 86 42 84 106H49c0 40 14 67 53 68 26 1 43-12 49-29l28 8c-11 28-37 45-77 45C44 4 14-33 15-96c1-61 26-98 85-98zm52 81c6-60-76-77-97-28-3 7-6 17-6 28h103" id="ap"/><path fill="#3a414a" d="M59-47c-2 24 18 29 38 22v24C64 9 27 4 27-40v-127H5v-23h24l9-43h21v43h35v23H59v120" id="aq"/><g id="b"><use transform="matrix(0.06172839506172839,0,0,0.06172839506172839,0,0)" xlink:href="#al"/><use transform="matrix(0.06172839506172839,0,0,0.06172839506172839,11.11111111111111,0)" xlink:href="#am"/><use transform="matrix(0.06172839506172839,0,0,0.06172839506172839,23.45679012345679,0)" xlink:href="#an"/><use transform="matrix(0.06172839506172839,0,0,0.06172839506172839,35.80246913580247,0)" xlink:href="#ao"/><use transform="matrix(0.06172839506172839,0,0,0.06172839506172839,48.148148148148145,0)" xlink:href="#ap"/><use transform="matrix(0.06172839506172839,0,0,0.06172839506172839,60.49382716049382,0)" xlink:href="#aq"/></g><path fill="#b40c4c" d="M205 0l-28-72H64L36 0H1l101-248h38L239 0h-34zm-38-99l-47-123c-12 45-31 82-46 123h93" id="ar"/><path fill="#b40c4c" d="M266 0h-40l-56-210L115 0H75L2-248h35L96-30l15-64 43-154h32l59 218 59-218h35" id="as"/><path fill="#b40c4c" d="M185-189c-5-48-123-54-124 2 14 75 158 14 163 119 3 78-121 87-175 55-17-10-28-26-33-46l33-7c5 56 141 63 141-1 0-78-155-14-162-118-5-82 145-84 179-34 5 7 8 16 11 25" id="at"/><g id="c"><use transform="matrix(0.05,0,0,0.05,0,0)" xlink:href="#ar"/><use transform="matrix(0.05,0,0,0.05,11.35,0)" xlink:href="#as"/><use transform="matrix(0.05,0,0,0.05,28.299999999999997,0)" xlink:href="#at"/></g><path fill="#b40c4c" d="M96-169c-40 0-48 33-48 73s9 75 48 75c24 0 41-14 43-38l32 2c-6 37-31 61-74 61-59 0-76-41-82-99-10-93 101-131 147-64 4 7 5 14 7 22l-32 3c-4-21-16-35-41-35" id="au"/><path fill="#b40c4c" d="M100-194c62-1 85 37 85 99 1 63-27 99-86 99S16-35 15-95c0-66 28-99 85-99zM99-20c44 1 53-31 53-75 0-43-8-75-51-75s-53 32-53 75 10 74 51 75" id="av"/><path fill="#b40c4c" d="M84 4C-5 8 30-112 23-190h32v120c0 31 7 50 39 49 72-2 45-101 50-169h31l1 190h-30c-1-10 1-25-2-33-11 22-28 36-60 37" id="aw"/><path fill="#b40c4c" d="M117-194c89-4 53 116 60 194h-32v-121c0-31-8-49-39-48C34-167 62-67 57 0H25l-1-190h30c1 10-1 24 2 32 11-22 29-35 61-36" id="ax"/><path fill="#b40c4c" d="M59-47c-2 24 18 29 38 22v24C64 9 27 4 27-40v-127H5v-23h24l9-43h21v43h35v23H59v120" id="ay"/><g id="d"><use transform="matrix(0.05,0,0,0.05,0,0)" xlink:href="#ar"/><use transform="matrix(0.05,0,0,0.05,12,0)" xlink:href="#au"/><use transform="matrix(0.05,0,0,0.05,21,0)" xlink:href="#au"/><use transform="matrix(0.05,0,0,0.05,30,0)" xlink:href="#av"/><use transform="matrix(0.05,0,0,0.05,40,0)" xlink:href="#aw"/><use transform="matrix(0.05,0,0,0.05,50,0)" xlink:href="#ax"/><use transform="matrix(0.05,0,0,0.05,60,0)" xlink:href="#ay"/></g><path fill="#5a6c86" d="M30 0v-248h187v28H63v79h144v27H63v87h162V0H30" id="az"/><path fill="#5a6c86" d="M194 0L95-120 63-95V0H30v-248h33v124l119-124h40L117-140 236 0h-42" id="aA"/><path fill="#5a6c86" d="M185-189c-5-48-123-54-124 2 14 75 158 14 163 119 3 78-121 87-175 55-17-10-28-26-33-46l33-7c5 56 141 63 141-1 0-78-155-14-162-118-5-82 145-84 179-34 5 7 8 16 11 25" id="aB"/><g id="e"><use transform="matrix(0.05,0,0,0.05,0,0)" xlink:href="#az"/><use transform="matrix(0.05,0,0,0.05,12,0)" xlink:href="#aA"/><use transform="matrix(0.05,0,0,0.05,24,0)" xlink:href="#aB"/></g><path fill="#5a6c86" d="M266 0h-40l-56-210L115 0H75L2-248h35L96-30l15-64 43-154h32l59 218 59-218h35" id="aC"/><path fill="#5a6c86" d="M100-194c62-1 85 37 85 99 1 63-27 99-86 99S16-35 15-95c0-66 28-99 85-99zM99-20c44 1 53-31 53-75 0-43-8-75-51-75s-53 32-53 75 10 74 51 75" id="aD"/><path fill="#5a6c86" d="M114-163C36-179 61-72 57 0H25l-1-190h30c1 12-1 29 2 39 6-27 23-49 58-41v29" id="aE"/><path fill="#5a6c86" d="M143 0L79-87 56-68V0H24v-261h32v163l83-92h37l-77 82L181 0h-38" id="aF"/><path fill="#5a6c86" d="M100-194c63 0 86 42 84 106H49c0 40 14 67 53 68 26 1 43-12 49-29l28 8c-11 28-37 45-77 45C44 4 14-33 15-96c1-61 26-98 85-98zm52 81c6-60-76-77-97-28-3 7-6 17-6 28h103" id="aG"/><g id="f"><use transform="matrix(0.05,0,0,0.05,0,0)" xlink:href="#aC"/><use transform="matrix(0.05,0,0,0.05,16.599999999999998,0)" xlink:href="#aD"/><use transform="matrix(0.05,0,0,0.05,26.599999999999994,0)" xlink:href="#aE"/><use transform="matrix(0.05,0,0,0.05,32.55,0)" xlink:href="#aF"/><use transform="matrix(0.05,0,0,0.05,41.55,0)" xlink:href="#aG"/><use transform="matrix(0.05,0,0,0.05,51.54999999999999,0)" xlink:href="#aE"/></g><path fill="#5a6c86" d="M190 0L58-211 59 0H30v-248h39L202-35l-2-213h31V0h-41" id="aH"/><path fill="#5a6c86" d="M85-194c31 0 48 13 60 33l-1-100h32l1 261h-30c-2-10 0-23-3-31C134-8 116 4 85 4 32 4 16-35 15-94c0-66 23-100 70-100zm9 24c-40 0-46 34-46 75 0 40 6 74 45 74 42 0 51-32 51-76 0-42-9-74-50-73" id="aI"/><path fill="#5a6c86" d="M135-143c-3-34-86-38-87 0 15 53 115 12 119 90S17 21 10-45l28-5c4 36 97 45 98 0-10-56-113-15-118-90-4-57 82-63 122-42 12 7 21 19 24 35" id="aJ"/><g id="g"><use transform="matrix(0.05,0,0,0.05,0,0)" xlink:href="#aH"/><use transform="matrix(0.05,0,0,0.05,12.950000000000001,0)" xlink:href="#aD"/><use transform="matrix(0.05,0,0,0.05,22.950000000000003,0)" xlink:href="#aI"/><use transform="matrix(0.05,0,0,0.05,32.95,0)" xlink:href="#aG"/><use transform="matrix(0.05,0,0,0.05,42.95,0)" xlink:href="#aJ"/></g><path d="M497-251l268-831h189L566 0H425L33-1082h189" id="aK"/><path d="M599-131c141 0 220-65 285-146l113 88C906-50 770 20 589 20 281 21 93-214 93-545c0-223 93-397 233-485 74-48 154-72 240-72 300 2 449 218 445 537v77H278c0 197 129 357 321 357zm227-509c-3-180-88-310-260-310-170 0-264 140-282 310h542" id="aL"/><path d="M277-555c0 244 77 420 297 424 127 2 249-93 255-210h175C980-127 805 20 574 20 258 20 81-222 92-562c11-319 164-533 481-540 237-5 426 165 431 392H829c-7-133-115-242-256-240-209 4-296 166-296 395" id="aM"/><path d="M456 20C285 20 205-92 206-268v-671H9v-143h197v-262h185v262h202v143H391v671c-9 125 92 149 207 118V0c-49 13-96 20-142 20" id="aN"/><path d="M584 20C278 26 81-227 91-551c10-320 175-545 491-551 308-5 503 247 494 573-9 322-175 543-492 549zm-2-970c-208 0-305 185-305 421 0 216 106 398 307 398 211 0 307-186 307-420 0-214-109-399-309-399" id="aO"/><path d="M663-916c-163-27-288 18-338 148V0H140v-1082h180l3 125c61-97 147-145 258-145 36 0 63 5 82 14v172" id="aP"/><g id="h"><use transform="matrix(0.0087890625,0,0,0.0087890625,0,0)" xlink:href="#aK"/><use transform="matrix(0.0087890625,0,0,0.0087890625,8.6044921875,0)" xlink:href="#aL"/><use transform="matrix(0.0087890625,0,0,0.0087890625,18.140625,0)" xlink:href="#aM"/><use transform="matrix(0.0087890625,0,0,0.0087890625,27.5625,0)" xlink:href="#aN"/><use transform="matrix(0.0087890625,0,0,0.0087890625,33.2666015625,0)" xlink:href="#aO"/><use transform="matrix(0.0087890625,0,0,0.0087890625,43.5322265625,0)" xlink:href="#aP"/></g><path d="M561-1102c238-4 403 126 403 351v498c0 99 13 178 38 237V0H808c-11-21-19-59-26-114C696-25 593 20 474 20c-199 0-368-130-365-320 4-251 214-359 490-356h180v-85c-1-135-86-212-229-212-115 0-232 67-233 171H131c20-205 206-316 430-320zM294-326c0 117 90 185 207 185 122 0 239-75 278-162v-222H634c-227 0-340 66-340 199" id="aQ"/><path d="M521 20C240 20 96-239 96-550c0-303 147-552 427-552 132 0 235 47 309 140l9-120h169V-26c4 277-183 454-459 452-165-1-334-81-400-187l96-111c79 98 176 147 291 147 180 1 288-109 286-290v-93C750-23 649 20 521 20zm48-965c-209 0-287 178-287 416 0 217 86 392 285 392 117 0 202-53 257-159v-494c-57-103-142-155-255-155" id="aR"/><path d="M589-945c-131 0-219 81-264 174V0H140v-1082h175l6 136c83-104 191-156 324-156 229 0 346 129 346 387V0H806v-716c-2-153-65-229-217-229" id="aS"/><g id="i"><use transform="matrix(0.0087890625,0,0,0.0087890625,0,0)" xlink:href="#aQ"/><use transform="matrix(0.0087890625,0,0,0.0087890625,9.791015625,0)" xlink:href="#aR"/><use transform="matrix(0.0087890625,0,0,0.0087890625,19.8896484375,0)" xlink:href="#aL"/><use transform="matrix(0.0087890625,0,0,0.0087890625,29.42578125,0)" xlink:href="#aS"/><use transform="matrix(0.0087890625,0,0,0.0087890625,39.357421875,0)" xlink:href="#aN"/></g><path d="M1216-1011c-1 297-202 441-512 441H361V0H169v-1456h537c297-6 510 164 510 445zm-192 2c1-178-126-288-307-289H361v571h345c196 1 318-92 318-282" id="aT"/><path d="M520 20C244 20 95-247 95-550c0-298 151-550 427-552 127 0 227 43 301 130v-564h185V0H838l-9-116C755-25 652 20 520 20zm48-965c-210 0-288 177-288 416 0 218 87 392 286 392 117 0 203-53 257-158v-497c-55-102-140-153-255-153" id="aU"/><g id="j"><use transform="matrix(0.0087890625,0,0,0.0087890625,0,0)" xlink:href="#aT"/><use transform="matrix(0.0087890625,0,0,0.0087890625,11.2412109375,0)" xlink:href="#aO"/><use transform="matrix(0.0087890625,0,0,0.0087890625,21.5068359375,0)" xlink:href="#aU"/></g><path d="M319-664C304-226 428 158 661 357l-38 113c-89-49-172-133-254-248C142-97 71-578 194-1025c67-244 240-513 429-618l38 122c-201 153-330 502-342 857" id="aV"/><path d="M1222-777c17 480-206 763-650 777H169v-1456h411c408 9 627 269 642 679zm-190 4c3-312-149-522-447-525H361v1141h202c308 0 473-209 469-531v-85" id="aW"/><path d="M1240-945c-141 0-250 95-250 227V0H804v-709c0-157-77-236-231-236-121 0-204 52-249 155V0H139v-1082h175l5 120c79-93 186-140 321-140 151 0 254 58 309 174 69-98 181-174 345-174 237 0 362 126 362 377V0h-185v-714c-2-159-67-231-231-231" id="aX"/><path d="M631-137c179 0 314-70 314-231 0-71-25-127-75-166s-141-77-272-115c-165-47-285-106-360-175s-112-154-112-255c0-245 231-397 495-397 206 0 369 89 449 218 43 68 65 142 65 223H942c0-184-129-283-321-283-172 0-299 76-301 236 0 59 26 109 76 150s135 78 256 113c205 59 345 116 436 256 35 53 50 119 50 193-2 256-231 398-507 390C333 12 90-129 80-422h193c0 187 160 285 358 285" id="aY"/><path d="M38 357C331 141 457-487 337-984c-53-219-157-429-299-546l39-113c190 106 362 378 431 621 75 268 76 597 0 868C440 88 266 365 77 470" id="aZ"/><g id="k"><use transform="matrix(0.0087890625,0,0,0.0087890625,0,0)" xlink:href="#aV"/><use transform="matrix(0.0087890625,0,0,0.0087890625,6.15234375,0)" xlink:href="#aW"/><use transform="matrix(0.0087890625,0,0,0.0087890625,17.9560546875,0)" xlink:href="#aQ"/><use transform="matrix(0.0087890625,0,0,0.0087890625,27.7470703125,0)" xlink:href="#aL"/><use transform="matrix(0.0087890625,0,0,0.0087890625,37.283203125,0)" xlink:href="#aX"/><use transform="matrix(0.0087890625,0,0,0.0087890625,53.0595703125,0)" xlink:href="#aO"/><use transform="matrix(0.0087890625,0,0,0.0087890625,63.3251953125,0)" xlink:href="#aS"/><use transform="matrix(0.0087890625,0,0,0.0087890625,73.2568359375,0)" xlink:href="#aY"/><use transform="matrix(0.0087890625,0,0,0.0087890625,83.935546875,0)" xlink:href="#aL"/><use transform="matrix(0.0087890625,0,0,0.0087890625,93.4716796875,0)" xlink:href="#aN"/><use transform="matrix(0.0087890625,0,0,0.0087890625,99.3515625,0)" xlink:href="#aZ"/></g><path d="M688-137c238 0 323-102 359-325h193c-32 297-228 482-552 482-361 0-569-299-569-680 0-197 8-360 73-497 88-186 257-317 513-319 316-2 509 195 535 488h-193c-31-212-118-330-342-330-272 0-397 224-393 523v141c-3 282 115 517 376 517" id="ba"/><path d="M341 0H156v-1536h185V0" id="bb"/><path d="M538-131c121 0 232-49 232-156 0-50-20-88-56-117-73-60-334-92-420-143-92-55-162-110-162-238 0-190 192-317 400-317 223 0 414 129 413 338H759c0-108-110-186-227-186-119 0-215 53-215 159 0 45 18 78 53 101 76 52 331 90 416 139 98 57 169 115 169 251C955-92 760 20 538 20c-176 0-314-68-386-174-38-55-57-115-57-179h185c6 129 116 202 258 202" id="bc"/><g id="m"><use transform="matrix(0.0087890625,0,0,0.0087890625,0,0)" xlink:href="#ba"/><use transform="matrix(0.0087890625,0,0,0.0087890625,11.7158203125,0)" xlink:href="#aO"/><use transform="matrix(0.0087890625,0,0,0.0087890625,21.9814453125,0)" xlink:href="#bb"/><use transform="matrix(0.0087890625,0,0,0.0087890625,26.349609375,0)" xlink:href="#bb"/><use transform="matrix(0.0087890625,0,0,0.0087890625,30.7177734375,0)" xlink:href="#aL"/><use transform="matrix(0.0087890625,0,0,0.0087890625,40.25390625,0)" xlink:href="#aM"/><use transform="matrix(0.0087890625,0,0,0.0087890625,49.67578125,0)" xlink:href="#aN"/><use transform="matrix(0.0087890625,0,0,0.0087890625,55.5556640625,0)" xlink:href="#bc"/></g><g id="n"><use transform="matrix(0.0087890625,0,0,0.0087890625,0,0)" xlink:href="#bb"/><use transform="matrix(0.0087890625,0,0,0.0087890625,4.3681640625,0)" xlink:href="#aO"/><use transform="matrix(0.0087890625,0,0,0.0087890625,14.6337890625,0)" xlink:href="#aR"/><use transform="matrix(0.0087890625,0,0,0.0087890625,24.732421875,0)" xlink:href="#bc"/></g><g id="o"><use transform="matrix(0.0087890625,0,0,0.0087890625,0,0)" xlink:href="#aQ"/><use transform="matrix(0.0087890625,0,0,0.0087890625,9.791015625,0)" xlink:href="#aS"/><use transform="matrix(0.0087890625,0,0,0.0087890625,19.72265625,0)" xlink:href="#aU"/></g><path d="M341 0H156v-1082h185V0zm-91-1264c-68 0-108-42-109-105 0-62 41-107 109-107s110 44 110 107-42 105-110 105" id="bd"/><g id="p"><use transform="matrix(0.0087890625,0,0,0.0087890625,0,0)" xlink:href="#aX"/><use transform="matrix(0.0087890625,0,0,0.0087890625,15.7763671875,0)" xlink:href="#aL"/><use transform="matrix(0.0087890625,0,0,0.0087890625,25.3125,0)" xlink:href="#aN"/><use transform="matrix(0.0087890625,0,0,0.0087890625,31.1923828125,0)" xlink:href="#aP"/><use transform="matrix(0.0087890625,0,0,0.0087890625,37.283203125,0)" xlink:href="#bd"/><use transform="matrix(0.0087890625,0,0,0.0087890625,41.6513671875,0)" xlink:href="#aM"/><use transform="matrix(0.0087890625,0,0,0.0087890625,51.0732421875,0)" xlink:href="#bc"/></g><path d="M704-1390c-164-38-297 28-288 194v114h231v143H416V0H231v-939H60v-143h171v-111c-12-274 208-416 483-347" id="be"/><g id="q"><use transform="matrix(0.0087890625,0,0,0.0087890625,0,0)" xlink:href="#be"/><use transform="matrix(0.0087890625,0,0,0.0087890625,6.2490234375,0)" xlink:href="#aP"/><use transform="matrix(0.0087890625,0,0,0.0087890625,12.1640625,0)" xlink:href="#aO"/><use transform="matrix(0.0087890625,0,0,0.0087890625,22.4296875,0)" xlink:href="#aX"/></g><path d="M589-945c-131 0-219 81-264 174V0H140v-1536h185v585c82-101 189-151 320-151 229 0 346 129 346 387V0H806v-716c-2-153-65-229-217-229" id="bf"/><g id="r"><use transform="matrix(0.0087890625,0,0,0.0087890625,0,0)" xlink:href="#aN"/><use transform="matrix(0.0087890625,0,0,0.0087890625,5.8798828125,0)" xlink:href="#bf"/><use transform="matrix(0.0087890625,0,0,0.0087890625,15.7939453125,0)" xlink:href="#aL"/></g><path d="M134 290L29 218c97-132 105-239 98-437h181c1 144 5 239-50 347-34 67-74 121-124 162" id="bg"/><g id="s"><use transform="matrix(0.0087890625,0,0,0.0087890625,0,0)" xlink:href="#aS"/><use transform="matrix(0.0087890625,0,0,0.0087890625,9.931640625,0)" xlink:href="#aO"/><use transform="matrix(0.0087890625,0,0,0.0087890625,20.197265625,0)" xlink:href="#aU"/><use transform="matrix(0.0087890625,0,0,0.0087890625,30.3486328125,0)" xlink:href="#aL"/><use transform="matrix(0.0087890625,0,0,0.0087890625,39.884765625,0)" xlink:href="#bg"/></g><path d="M491 20c-241-1-355-148-355-398v-704h185v699c0 164 67 246 200 246 141 0 235-53 282-158v-787h185V0H812l-4-107C736-22 630 20 491 20" id="bh"/><g id="t"><use transform="matrix(0.0087890625,0,0,0.0087890625,0,0)" xlink:href="#bd"/><use transform="matrix(0.0087890625,0,0,0.0087890625,4.3681640625,0)" xlink:href="#aS"/><use transform="matrix(0.0087890625,0,0,0.0087890625,14.2998046875,0)" xlink:href="#aM"/><use transform="matrix(0.0087890625,0,0,0.0087890625,23.7216796875,0)" xlink:href="#bb"/><use transform="matrix(0.0087890625,0,0,0.0087890625,28.08984375,0)" xlink:href="#bh"/><use transform="matrix(0.0087890625,0,0,0.0087890625,38.0126953125,0)" xlink:href="#aU"/><use transform="matrix(0.0087890625,0,0,0.0087890625,48.1640625,0)" xlink:href="#bd"/><use transform="matrix(0.0087890625,0,0,0.0087890625,52.5322265625,0)" xlink:href="#aS"/><use transform="matrix(0.0087890625,0,0,0.0087890625,62.4638671875,0)" xlink:href="#aR"/></g><path d="M632-1102c291 0 422 251 422 573 0 297-141 548-419 549-131 0-235-42-310-125v521H140v-1498h169l9 120c75-93 180-140 314-140zm-53 971c207 0 290-180 290-419 0-218-92-395-292-395-112 0-196 50-252 149v517c55 99 140 148 254 148" id="bi"/><g id="u"><use transform="matrix(0.0087890625,0,0,0.0087890625,0,0)" xlink:href="#aQ"/><use transform="matrix(0.0087890625,0,0,0.0087890625,9.791015625,0)" xlink:href="#bi"/><use transform="matrix(0.0087890625,0,0,0.0087890625,19.8896484375,0)" xlink:href="#bi"/><use transform="matrix(0.0087890625,0,0,0.0087890625,29.98828125,0)" xlink:href="#bb"/><use transform="matrix(0.0087890625,0,0,0.0087890625,34.3564453125,0)" xlink:href="#bd"/><use transform="matrix(0.0087890625,0,0,0.0087890625,38.724609375,0)" xlink:href="#aM"/><use transform="matrix(0.0087890625,0,0,0.0087890625,48.146484375,0)" xlink:href="#aQ"/><use transform="matrix(0.0087890625,0,0,0.0087890625,57.9375,0)" xlink:href="#aN"/><use transform="matrix(0.0087890625,0,0,0.0087890625,63.8173828125,0)" xlink:href="#bd"/><use transform="matrix(0.0087890625,0,0,0.0087890625,68.185546875,0)" xlink:href="#aO"/><use transform="matrix(0.0087890625,0,0,0.0087890625,78.451171875,0)" xlink:href="#aS"/></g><g id="v"><use transform="matrix(0.0087890625,0,0,0.0087890625,0,0)" xlink:href="#bb"/><use transform="matrix(0.0087890625,0,0,0.0087890625,4.3681640625,0)" xlink:href="#aO"/><use transform="matrix(0.0087890625,0,0,0.0087890625,14.6337890625,0)" xlink:href="#aR"/><use transform="matrix(0.0087890625,0,0,0.0087890625,24.732421875,0)" xlink:href="#bc"/></g><path fill="#3a414a" d="M266 0h-40l-56-210L115 0H75L2-248h35L96-30l15-64 43-154h32l59 218 59-218h35" id="bj"/><path fill="#3a414a" d="M100-194c62-1 85 37 85 99 1 63-27 99-86 99S16-35 15-95c0-66 28-99 85-99zM99-20c44 1 53-31 53-75 0-43-8-75-51-75s-53 32-53 75 10 74 51 75" id="bk"/><path fill="#3a414a" d="M114-163C36-179 61-72 57 0H25l-1-190h30c1 12-1 29 2 39 6-27 23-49 58-41v29" id="bl"/><path fill="#3a414a" d="M143 0L79-87 56-68V0H24v-261h32v163l83-92h37l-77 82L181 0h-38" id="bm"/><path fill="#3a414a" d="M101-251c82-7 93 87 43 132L82-64C71-53 59-42 53-27h129V0H18c2-99 128-94 128-182 0-28-16-43-45-43s-46 15-49 41l-32-3c6-41 34-60 81-64" id="bn"/><g id="w"><use transform="matrix(0.06172839506172839,0,0,0.06172839506172839,0,0)" xlink:href="#bj"/><use transform="matrix(0.06172839506172839,0,0,0.06172839506172839,20.493827160493826,0)" xlink:href="#bk"/><use transform="matrix(0.06172839506172839,0,0,0.06172839506172839,32.839506172839506,0)" xlink:href="#bl"/><use transform="matrix(0.06172839506172839,0,0,0.06172839506172839,40.18518518518518,0)" xlink:href="#bm"/><use transform="matrix(0.06172839506172839,0,0,0.06172839506172839,51.29629629629629,0)" xlink:href="#ap"/><use transform="matrix(0.06172839506172839,0,0,0.06172839506172839,63.641975308641975,0)" xlink:href="#bl"/><use transform="matrix(0.06172839506172839,0,0,0.06172839506172839,70.98765432098764,0)" xlink:href="#bn"/></g><g id="x"><use transform="matrix(0.0087890625,0,0,0.0087890625,0,0)" xlink:href="#aQ"/><use transform="matrix(0.0087890625,0,0,0.0087890625,9.791015625,0)" xlink:href="#aR"/><use transform="matrix(0.0087890625,0,0,0.0087890625,19.8896484375,0)" xlink:href="#aR"/><use transform="matrix(0.0087890625,0,0,0.0087890625,29.98828125,0)" xlink:href="#aP"/><use transform="matrix(0.0087890625,0,0,0.0087890625,35.912109375,0)" xlink:href="#aL"/><use transform="matrix(0.0087890625,0,0,0.0087890625,45.4482421875,0)" xlink:href="#aR"/><use transform="matrix(0.0087890625,0,0,0.0087890625,55.546875,0)" xlink:href="#aQ"/><use transform="matrix(0.0087890625,0,0,0.0087890625,65.337890625,0)" xlink:href="#aN"/><use transform="matrix(0.0087890625,0,0,0.0087890625,71.0419921875,0)" xlink:href="#aO"/><use transform="matrix(0.0087890625,0,0,0.0087890625,81.3076171875,0)" xlink:href="#aP"/></g><g id="y"><use transform="matrix(0.0087890625,0,0,0.0087890625,0,0)" xlink:href="#aV"/><use transform="matrix(0.0087890625,0,0,0.0087890625,6.15234375,0)" xlink:href="#aY"/><use transform="matrix(0.0087890625,0,0,0.0087890625,16.8310546875,0)" xlink:href="#aN"/><use transform="matrix(0.0087890625,0,0,0.0087890625,22.7109375,0)" xlink:href="#aQ"/><use transform="matrix(0.0087890625,0,0,0.0087890625,32.501953125,0)" xlink:href="#aN"/><use transform="matrix(0.0087890625,0,0,0.0087890625,38.3818359375,0)" xlink:href="#aL"/><use transform="matrix(0.0087890625,0,0,0.0087890625,47.91796875,0)" xlink:href="#aN"/><use transform="matrix(0.0087890625,0,0,0.0087890625,53.7978515625,0)" xlink:href="#be"/><use transform="matrix(0.0087890625,0,0,0.0087890625,60.046875,0)" xlink:href="#bh"/><use transform="matrix(0.0087890625,0,0,0.0087890625,69.9697265625,0)" xlink:href="#bb"/><use transform="matrix(0.0087890625,0,0,0.0087890625,74.337890625,0)" xlink:href="#bb"/><use transform="matrix(0.0087890625,0,0,0.0087890625,78.7060546875,0)" xlink:href="#aY"/><use transform="matrix(0.0087890625,0,0,0.0087890625,89.384765625,0)" xlink:href="#aL"/><use transform="matrix(0.0087890625,0,0,0.0087890625,98.9208984375,0)" xlink:href="#aN"/><use transform="matrix(0.0087890625,0,0,0.0087890625,104.80078125,0)" xlink:href="#aZ"/></g><g id="z"><use transform="matrix(0.0087890625,0,0,0.0087890625,0,0)" xlink:href="#aT"/><use transform="matrix(0.0087890625,0,0,0.0087890625,11.2587890625,0)" xlink:href="#aQ"/><use transform="matrix(0.0087890625,0,0,0.0087890625,21.0498046875,0)" xlink:href="#aP"/><use transform="matrix(0.0087890625,0,0,0.0087890625,27.140625,0)" xlink:href="#bc"/><use transform="matrix(0.0087890625,0,0,0.0087890625,36.421875,0)" xlink:href="#aL"/><use transform="matrix(0.0087890625,0,0,0.0087890625,45.9580078125,0)" xlink:href="#bc"/></g><g id="A"><use transform="matrix(0.0087890625,0,0,0.0087890625,0,0)" xlink:href="#aQ"/><use transform="matrix(0.0087890625,0,0,0.0087890625,9.791015625,0)" xlink:href="#aS"/><use transform="matrix(0.0087890625,0,0,0.0087890625,19.72265625,0)" xlink:href="#aU"/></g><g id="B"><use transform="matrix(0.0087890625,0,0,0.0087890625,0,0)" xlink:href="#aN"/><use transform="matrix(0.0087890625,0,0,0.0087890625,5.8798828125,0)" xlink:href="#aP"/><use transform="matrix(0.0087890625,0,0,0.0087890625,11.619140625,0)" xlink:href="#aQ"/><use transform="matrix(0.0087890625,0,0,0.0087890625,21.41015625,0)" xlink:href="#aS"/><use transform="matrix(0.0087890625,0,0,0.0087890625,31.341796875,0)" xlink:href="#bc"/><use transform="matrix(0.0087890625,0,0,0.0087890625,40.623046875,0)" xlink:href="#be"/><use transform="matrix(0.0087890625,0,0,0.0087890625,46.8720703125,0)" xlink:href="#aO"/><use transform="matrix(0.0087890625,0,0,0.0087890625,57.1376953125,0)" xlink:href="#aP"/><use transform="matrix(0.0087890625,0,0,0.0087890625,63.228515625,0)" xlink:href="#aX"/></g><g id="C"><use transform="matrix(0.0087890625,0,0,0.0087890625,0,0)" xlink:href="#aX"/><use transform="matrix(0.0087890625,0,0,0.0087890625,15.7763671875,0)" xlink:href="#aL"/><use transform="matrix(0.0087890625,0,0,0.0087890625,25.3125,0)" xlink:href="#aN"/><use transform="matrix(0.0087890625,0,0,0.0087890625,31.1923828125,0)" xlink:href="#aP"/><use transform="matrix(0.0087890625,0,0,0.0087890625,37.283203125,0)" xlink:href="#bd"/><use transform="matrix(0.0087890625,0,0,0.0087890625,41.6513671875,0)" xlink:href="#aM"/><use transform="matrix(0.0087890625,0,0,0.0087890625,51.0732421875,0)" xlink:href="#bc"/><use transform="matrix(0.0087890625,0,0,0.0087890625,60.3544921875,0)" xlink:href="#bg"/></g><g id="D"><use transform="matrix(0.0087890625,0,0,0.0087890625,0,0)" xlink:href="#bc"/><use transform="matrix(0.0087890625,0,0,0.0087890625,9.28125,0)" xlink:href="#aL"/><use transform="matrix(0.0087890625,0,0,0.0087890625,18.8173828125,0)" xlink:href="#aS"/><use transform="matrix(0.0087890625,0,0,0.0087890625,28.7490234375,0)" xlink:href="#aU"/><use transform="matrix(0.0087890625,0,0,0.0087890625,38.900390625,0)" xlink:href="#bc"/></g><g id="E"><use transform="matrix(0.0087890625,0,0,0.0087890625,0,0)" xlink:href="#aN"/><use transform="matrix(0.0087890625,0,0,0.0087890625,5.8798828125,0)" xlink:href="#bf"/><use transform="matrix(0.0087890625,0,0,0.0087890625,15.7939453125,0)" xlink:href="#aL"/><use transform="matrix(0.0087890625,0,0,0.0087890625,25.330078125,0)" xlink:href="#aX"/></g><g id="F"><use transform="matrix(0.0087890625,0,0,0.0087890625,0,0)" xlink:href="#aN"/><use transform="matrix(0.0087890625,0,0,0.0087890625,5.7041015625,0)" xlink:href="#aO"/></g><path d="M703-1476c426 0 599 333 586 795-11 408-187 701-584 701-422 0-587-333-587-793 0-282 106-507 280-617 89-56 190-86 305-86zm2 1333c312 0 393-279 393-632 0-308-116-536-395-536-269 0-394 232-394 523v107c-4 298 123 538 396 538" id="bo"/><g id="G"><use transform="matrix(0.0087890625,0,0,0.0087890625,0,0)" xlink:href="#bo"/><use transform="matrix(0.0087890625,0,0,0.0087890625,12.375,0)" xlink:href="#bi"/><use transform="matrix(0.0087890625,0,0,0.0087890625,22.4736328125,0)" xlink:href="#aL"/><use transform="matrix(0.0087890625,0,0,0.0087890625,32.009765625,0)" xlink:href="#aS"/><use transform="matrix(0.0087890625,0,0,0.0087890625,41.94140625,0)" xlink:href="#bc"/><use transform="matrix(0.0087890625,0,0,0.0087890625,51.22265625,0)" xlink:href="#aL"/><use transform="matrix(0.0087890625,0,0,0.0087890625,60.7587890625,0)" xlink:href="#aQ"/><use transform="matrix(0.0087890625,0,0,0.0087890625,70.5498046875,0)" xlink:href="#aP"/><use transform="matrix(0.0087890625,0,0,0.0087890625,76.4736328125,0)" xlink:href="#aM"/><use transform="matrix(0.0087890625,0,0,0.0087890625,85.8955078125,0)" xlink:href="#bf"/></g><linearGradient gradientUnits="userSpaceOnUse" id="H" x1="320" y1="460" x2="440" y2="340"><stop offset="0%" stop-color="#c8511b"/><stop offset="100%" stop-color="#f90"/></linearGradient><path d="M205 0l-28-72H64L36 0H1l101-248h38L239 0h-34zm-38-99l-47-123c-12 45-31 82-46 123h93" id="bp"/><path d="M210-169c-67 3-38 105-44 169h-31v-121c0-29-5-50-35-48C34-165 62-65 56 0H25l-1-190h30c1 10-1 24 2 32 10-44 99-50 107 0 11-21 27-35 58-36 85-2 47 119 55 194h-31v-121c0-29-5-49-35-48" id="bq"/><path d="M141-36C126-15 110 5 73 4 37 3 15-17 15-53c-1-64 63-63 125-63 3-35-9-54-41-54-24 1-41 7-42 31l-33-3c5-37 33-52 76-52 45 0 72 20 72 64v82c-1 20 7 32 28 27v20c-31 9-61-2-59-35zM48-53c0 20 12 33 32 33 41-3 63-29 60-74-43 2-92-5-92 41" id="br"/><path d="M9 0v-24l116-142H16v-24h144v24L44-24h123V0H9" id="bs"/><path d="M100-194c62-1 85 37 85 99 1 63-27 99-86 99S16-35 15-95c0-66 28-99 85-99zM99-20c44 1 53-31 53-75 0-43-8-75-51-75s-53 32-53 75 10 74 51 75" id="bt"/><path d="M117-194c89-4 53 116 60 194h-32v-121c0-31-8-49-39-48C34-167 62-67 57 0H25l-1-190h30c1 10-1 24 2 32 11-22 29-35 61-36" id="bu"/><g id="I"><use transform="matrix(0.05,0,0,0.05,0,0)" xlink:href="#bp"/><use transform="matrix(0.05,0,0,0.05,12,0)" xlink:href="#bq"/><use transform="matrix(0.05,0,0,0.05,26.950000000000003,0)" xlink:href="#br"/><use transform="matrix(0.05,0,0,0.05,36.95,0)" xlink:href="#bs"/><use transform="matrix(0.05,0,0,0.05,45.95,0)" xlink:href="#bt"/><use transform="matrix(0.05,0,0,0.05,55.95,0)" xlink:href="#bu"/></g><path d="M30 0v-248h187v28H63v79h144v27H63v87h162V0H30" id="bv"/><path d="M194 0L95-120 63-95V0H30v-248h33v124l119-124h40L117-140 236 0h-42" id="bw"/><path d="M185-189c-5-48-123-54-124 2 14 75 158 14 163 119 3 78-121 87-175 55-17-10-28-26-33-46l33-7c5 56 141 63 141-1 0-78-155-14-162-118-5-82 145-84 179-34 5 7 8 16 11 25" id="bx"/><g id="J"><use transform="matrix(0.05,0,0,0.05,0,0)" xlink:href="#bv"/><use transform="matrix(0.05,0,0,0.05,12,0)" xlink:href="#bw"/><use transform="matrix(0.05,0,0,0.05,24,0)" xlink:href="#bx"/></g><path fill="#3a414a" d="M96-169c-40 0-48 33-48 73s9 75 48 75c24 0 41-14 43-38l32 2c-6 37-31 61-74 61-59 0-76-41-82-99-10-93 101-131 147-64 4 7 5 14 7 22l-32 3c-4-21-16-35-41-35" id="by"/><g id="K"><use transform="matrix(0.06172839506172839,0,0,0.06172839506172839,0,0)" xlink:href="#an"/><use transform="matrix(0.06172839506172839,0,0,0.06172839506172839,12.345679012345679,0)" xlink:href="#am"/><use transform="matrix(0.06172839506172839,0,0,0.06172839506172839,24.691358024691358,0)" xlink:href="#by"/><use transform="matrix(0.06172839506172839,0,0,0.06172839506172839,35.80246913580247,0)" xlink:href="#bm"/><use transform="matrix(0.06172839506172839,0,0,0.06172839506172839,46.91358024691358,0)" xlink:href="#ap"/><use transform="matrix(0.06172839506172839,0,0,0.06172839506172839,59.25925925925926,0)" xlink:href="#aq"/></g><path fill="#3a414a" d="M206 0h-36l-40-164L89 0H53L-1-190h32L70-26l43-164h34l41 164 42-164h31" id="bz"/><path fill="#3a414a" d="M24-231v-30h32v30H24zM24 0v-190h32V0H24" id="bA"/><path fill="#3a414a" d="M106-169C34-169 62-67 57 0H25v-261h32l-1 103c12-21 28-36 61-36 89 0 53 116 60 194h-32v-121c2-32-8-49-39-48" id="bB"/><g id="L"><use transform="matrix(0.06172839506172839,0,0,0.06172839506172839,0,0)" xlink:href="#bz"/><use transform="matrix(0.06172839506172839,0,0,0.06172839506172839,15.987654320987653,0)" xlink:href="#bA"/><use transform="matrix(0.06172839506172839,0,0,0.06172839506172839,20.864197530864196,0)" xlink:href="#aq"/><use transform="matrix(0.06172839506172839,0,0,0.06172839506172839,27.037037037037035,0)" xlink:href="#bB"/></g><path fill="#3a414a" d="M24 0v-261h32V0H24" id="bC"/><path fill="#3a414a" d="M177-190C167-65 218 103 67 71c-23-6-38-20-44-43l32-5c15 47 100 32 89-28v-30C133-14 115 1 83 1 29 1 15-40 15-95c0-56 16-97 71-98 29-1 48 16 59 35 1-10 0-23 2-32h30zM94-22c36 0 50-32 50-73 0-42-14-75-50-75-39 0-46 34-46 75s6 73 46 73" id="bD"/><g id="M"><use transform="matrix(0.06172839506172839,0,0,0.06172839506172839,0,0)" xlink:href="#bC"/><use transform="matrix(0.06172839506172839,0,0,0.06172839506172839,4.876543209876543,0)" xlink:href="#bk"/><use transform="matrix(0.06172839506172839,0,0,0.06172839506172839,17.22222222222222,0)" xlink:href="#bD"/><use transform="matrix(0.06172839506172839,0,0,0.06172839506172839,29.5679012345679,0)" xlink:href="#al"/></g><path fill="#3a414a" d="M185-189c-5-48-123-54-124 2 14 75 158 14 163 119 3 78-121 87-175 55-17-10-28-26-33-46l33-7c5 56 141 63 141-1 0-78-155-14-162-118-5-82 145-84 179-34 5 7 8 16 11 25" id="bE"/><path fill="#3a414a" d="M140-251c81 0 123 46 123 126C263-53 228-8 163 1c7 30 30 48 69 40v23c-55 16-95-15-103-61C56-3 17-48 17-125c0-80 42-126 123-126zm0 227c63 0 89-41 89-101s-29-99-89-99c-61 0-89 39-89 99S79-25 140-24" id="bF"/><g id="N"><use transform="matrix(0.06172839506172839,0,0,0.06172839506172839,0,0)" xlink:href="#bE"/><use transform="matrix(0.06172839506172839,0,0,0.06172839506172839,14.814814814814813,0)" xlink:href="#bF"/><use transform="matrix(0.06172839506172839,0,0,0.06172839506172839,32.09876543209876,0)" xlink:href="#bE"/></g><path fill="#3a414a" d="M145-31C134-9 116 4 85 4 32 4 16-35 15-94c0-59 17-99 70-100 32-1 48 14 60 33 0-11-1-24 2-32h30l-1 268h-32zM93-21c41 0 51-33 51-76s-8-73-50-73c-40 0-46 35-46 75s5 74 45 74" id="bG"/><g id="O"><use transform="matrix(0.06172839506172839,0,0,0.06172839506172839,0,0)" xlink:href="#bG"/><use transform="matrix(0.06172839506172839,0,0,0.06172839506172839,12.345679012345679,0)" xlink:href="#am"/><use transform="matrix(0.06172839506172839,0,0,0.06172839506172839,24.691358024691358,0)" xlink:href="#ap"/><use transform="matrix(0.06172839506172839,0,0,0.06172839506172839,37.03703703703704,0)" xlink:href="#am"/><use transform="matrix(0.06172839506172839,0,0,0.06172839506172839,49.382716049382715,0)" xlink:href="#ap"/></g><g id="P"><use transform="matrix(0.06172839506172839,0,0,0.06172839506172839,0,0)" xlink:href="#ai"/><use transform="matrix(0.06172839506172839,0,0,0.06172839506172839,13.580246913580245,0)" xlink:href="#ap"/><use transform="matrix(0.06172839506172839,0,0,0.06172839506172839,25.925925925925924,0)" xlink:href="#by"/><use transform="matrix(0.06172839506172839,0,0,0.06172839506172839,37.03703703703704,0)" xlink:href="#aq"/><use transform="matrix(0.06172839506172839,0,0,0.06172839506172839,43.20987654320988,0)" xlink:href="#bk"/><use transform="matrix(0.06172839506172839,0,0,0.06172839506172839,55.55555555555556,0)" xlink:href="#bl"/></g><path fill="#3a414a" d="M205 0l-28-72H64L36 0H1l101-248h38L239 0h-34zm-38-99l-47-123c-12 45-31 82-46 123h93" id="bH"/><g id="Q"><use transform="matrix(0.06172839506172839,0,0,0.06172839506172839,0,0)" xlink:href="#bH"/><use transform="matrix(0.06172839506172839,0,0,0.06172839506172839,14.814814814814813,0)" xlink:href="#bD"/><use transform="matrix(0.06172839506172839,0,0,0.06172839506172839,27.160493827160494,0)" xlink:href="#ap"/><use transform="matrix(0.06172839506172839,0,0,0.06172839506172839,39.50617283950617,0)" xlink:href="#ao"/><use transform="matrix(0.06172839506172839,0,0,0.06172839506172839,51.85185185185185,0)" xlink:href="#aq"/></g><path fill="#3a414a" d="M33 0v-248h34V0H33" id="bI"/><path fill="#3a414a" d="M240 0l2-218c-23 76-54 145-80 218h-23L58-218 59 0H30v-248h44l77 211c21-75 51-140 76-211h43V0h-30" id="bJ"/><g id="R"><use transform="matrix(0.06172839506172839,0,0,0.06172839506172839,0,0)" xlink:href="#bI"/><use transform="matrix(0.06172839506172839,0,0,0.06172839506172839,6.172839506172839,0)" xlink:href="#bH"/><use transform="matrix(0.06172839506172839,0,0,0.06172839506172839,20.98765432098765,0)" xlink:href="#bJ"/></g><path fill="#3a414a" d="M233-177c-1 41-23 64-60 70L243 0h-38l-65-103H63V0H30v-248c88 3 205-21 203 71zM63-129c60-2 137 13 137-47 0-61-80-42-137-45v92" id="bK"/><g id="S"><use transform="matrix(0.06172839506172839,0,0,0.06172839506172839,0,0)" xlink:href="#bK"/><use transform="matrix(0.06172839506172839,0,0,0.06172839506172839,15.987654320987653,0)" xlink:href="#bk"/><use transform="matrix(0.06172839506172839,0,0,0.06172839506172839,28.333333333333332,0)" xlink:href="#bC"/><use transform="matrix(0.06172839506172839,0,0,0.06172839506172839,33.20987654320987,0)" xlink:href="#ap"/></g><path fill="#3a414a" d="M27 0v-27h64v-190l-56 39v-29l58-41h29v221h61V0H27" id="bL"/><g id="T"><use transform="matrix(0.06172839506172839,0,0,0.06172839506172839,0,0)" xlink:href="#bj"/><use transform="matrix(0.06172839506172839,0,0,0.06172839506172839,20.493827160493826,0)" xlink:href="#bk"/><use transform="matrix(0.06172839506172839,0,0,0.06172839506172839,32.839506172839506,0)" xlink:href="#bl"/><use transform="matrix(0.06172839506172839,0,0,0.06172839506172839,40.18518518518518,0)" xlink:href="#bm"/><use transform="matrix(0.06172839506172839,0,0,0.06172839506172839,51.29629629629629,0)" xlink:href="#ap"/><use transform="matrix(0.06172839506172839,0,0,0.06172839506172839,63.641975308641975,0)" xlink:href="#bl"/><use transform="matrix(0.06172839506172839,0,0,0.06172839506172839,70.98765432098764,0)" xlink:href="#bL"/></g><path fill="#333" d="M190-63c-7 42-38 67-86 67-59 0-84-38-90-98-12-110 154-137 174-36l-49 2c-2-19-15-32-35-32-30 0-35 28-38 64-6 74 65 87 74 30" id="bM"/><path fill="#333" d="M135-150c-39-12-60 13-60 57V0H25l-1-190h47c2 13-1 29 3 40 6-28 27-53 61-41v41" id="bN"/><path fill="#333" d="M185-48c-13 30-37 53-82 52C43 2 14-33 14-96s30-98 90-98c62 0 83 45 84 108H66c0 31 8 55 39 56 18 0 30-7 34-22zm-45-69c5-46-57-63-70-21-2 6-4 13-4 21h74" id="bO"/><path fill="#333" d="M133-34C117-15 103 5 69 4 32 3 11-16 11-54c-1-60 55-63 116-61 1-26-3-47-28-47-18 1-26 9-28 27l-52-2c7-38 36-58 82-57s74 22 75 68l1 82c-1 14 12 18 25 15v27c-30 8-71 5-69-32zm-48 3c29 0 43-24 42-57-32 0-66-3-65 30 0 17 8 27 23 27" id="bP"/><path fill="#333" d="M115-3C79 11 28 4 28-45v-112H4v-33h27l15-45h31v45h36v33H77v99c-1 23 16 31 38 25v30" id="bQ"/><path fill="#333" d="M140-251c80 0 125 45 125 126S219 4 139 4C58 4 15-44 15-125s44-126 125-126zm-1 214c52 0 73-35 73-88 0-50-21-86-72-86-52 0-73 35-73 86s22 88 72 88" id="bR"/><path fill="#333" d="M135-194c52 0 70 43 70 98 0 56-19 99-73 100-30 1-46-15-58-35L72 0H24l1-261h50v104c11-23 29-37 60-37zM114-30c31 0 40-27 40-66 0-37-7-63-39-63s-41 28-41 65c0 36 8 64 40 64" id="bS"/><path fill="#333" d="M25-224v-37h50v37H25zM75 22c2 45-34 59-81 51V38c22 5 31-5 31-27v-201h50V22" id="bT"/><g id="U"><use transform="matrix(0.04938271604938272,0,0,0.04938271604938272,0,0)" xlink:href="#bM"/><use transform="matrix(0.04938271604938272,0,0,0.04938271604938272,9.876543209876544,0)" xlink:href="#bN"/><use transform="matrix(0.04938271604938272,0,0,0.04938271604938272,16.790123456790127,0)" xlink:href="#bO"/><use transform="matrix(0.04938271604938272,0,0,0.04938271604938272,26.666666666666668,0)" xlink:href="#bP"/><use transform="matrix(0.04938271604938272,0,0,0.04938271604938272,36.543209876543216,0)" xlink:href="#bQ"/><use transform="matrix(0.04938271604938272,0,0,0.04938271604938272,42.41975308641976,0)" xlink:href="#bO"/><use transform="matrix(0.04938271604938272,0,0,0.04938271604938272,52.2962962962963,0)" xlink:href="#bR"/><use transform="matrix(0.04938271604938272,0,0,0.04938271604938272,66.12345679012347,0)" xlink:href="#bS"/><use transform="matrix(0.04938271604938272,0,0,0.04938271604938272,76.93827160493828,0)" xlink:href="#bT"/><use transform="matrix(0.04938271604938272,0,0,0.04938271604938272,81.87654320987656,0)" xlink:href="#bO"/><use transform="matrix(0.04938271604938272,0,0,0.04938271604938272,91.7530864197531,0)" xlink:href="#bM"/><use transform="matrix(0.04938271604938272,0,0,0.04938271604938272,101.62962962962963,0)" xlink:href="#bQ"/></g><path fill="#333" d="M128 0H69L1-190h53L99-40l48-150h52" id="bU"/><path fill="#333" d="M135-194c87-1 58 113 63 194h-50c-7-57 23-157-34-157-59 0-34 97-39 157H25l-1-190h47c2 12-1 28 3 38 12-26 28-41 61-42" id="bV"/><g id="V"><use transform="matrix(0.04938271604938272,0,0,0.04938271604938272,0,0)" xlink:href="#bO"/><use transform="matrix(0.04938271604938272,0,0,0.04938271604938272,9.876543209876544,0)" xlink:href="#bU"/><use transform="matrix(0.04938271604938272,0,0,0.04938271604938272,19.75308641975309,0)" xlink:href="#bO"/><use transform="matrix(0.04938271604938272,0,0,0.04938271604938272,29.629629629629633,0)" xlink:href="#bV"/><use transform="matrix(0.04938271604938272,0,0,0.04938271604938272,40.44444444444445,0)" xlink:href="#bQ"/></g><path fill="#3a414a" d="M141-36C126-15 110 5 73 4 37 3 15-17 15-53c-1-64 63-63 125-63 3-35-9-54-41-54-24 1-41 7-42 31l-33-3c5-37 33-52 76-52 45 0 72 20 72 64v82c-1 20 7 32 28 27v20c-31 9-61-2-59-35zM48-53c0 20 12 33 32 33 41-3 63-29 60-74-43 2-92-5-92 41" id="bW"/><g id="W"><use transform="matrix(0.06172839506172839,0,0,0.06172839506172839,0,0)" xlink:href="#bH"/><use transform="matrix(0.06172839506172839,0,0,0.06172839506172839,14.814814814814813,0)" xlink:href="#bD"/><use transform="matrix(0.06172839506172839,0,0,0.06172839506172839,27.160493827160494,0)" xlink:href="#bD"/><use transform="matrix(0.06172839506172839,0,0,0.06172839506172839,39.50617283950617,0)" xlink:href="#bl"/><use transform="matrix(0.06172839506172839,0,0,0.06172839506172839,46.85185185185185,0)" xlink:href="#ap"/><use transform="matrix(0.06172839506172839,0,0,0.06172839506172839,59.197530864197525,0)" xlink:href="#bD"/><use transform="matrix(0.06172839506172839,0,0,0.06172839506172839,71.5432098765432,0)" xlink:href="#bW"/><use transform="matrix(0.06172839506172839,0,0,0.06172839506172839,83.88888888888889,0)" xlink:href="#aq"/><use transform="matrix(0.06172839506172839,0,0,0.06172839506172839,90.06172839506172,0)" xlink:href="#bk"/><use transform="matrix(0.06172839506172839,0,0,0.06172839506172839,102.4074074074074,0)" xlink:href="#bl"/></g><path fill="#3a414a" d="M108 0H70L1-190h34L89-25l56-165h34" id="bX"/><g id="X"><use transform="matrix(0.06172839506172839,0,0,0.06172839506172839,0,0)" xlink:href="#bE"/><use transform="matrix(0.06172839506172839,0,0,0.06172839506172839,14.814814814814813,0)" xlink:href="#ap"/><use transform="matrix(0.06172839506172839,0,0,0.06172839506172839,27.160493827160494,0)" xlink:href="#bl"/><use transform="matrix(0.06172839506172839,0,0,0.06172839506172839,34.50617283950617,0)" xlink:href="#bX"/><use transform="matrix(0.06172839506172839,0,0,0.06172839506172839,45.61728395061728,0)" xlink:href="#bA"/><use transform="matrix(0.06172839506172839,0,0,0.06172839506172839,50.49382716049382,0)" xlink:href="#by"/><use transform="matrix(0.06172839506172839,0,0,0.06172839506172839,61.60493827160494,0)" xlink:href="#ap"/></g><g id="Y"><use transform="matrix(0.06172839506172839,0,0,0.06172839506172839,0,0)" xlink:href="#bH"/><use transform="matrix(0.06172839506172839,0,0,0.06172839506172839,14.814814814814813,0)" xlink:href="#by"/><use transform="matrix(0.06172839506172839,0,0,0.06172839506172839,25.925925925925924,0)" xlink:href="#by"/><use transform="matrix(0.06172839506172839,0,0,0.06172839506172839,37.03703703703704,0)" xlink:href="#bk"/><use transform="matrix(0.06172839506172839,0,0,0.06172839506172839,49.382716049382715,0)" xlink:href="#am"/><use transform="matrix(0.06172839506172839,0,0,0.06172839506172839,61.72839506172839,0)" xlink:href="#ao"/><use transform="matrix(0.06172839506172839,0,0,0.06172839506172839,74.07407407407408,0)" xlink:href="#aq"/></g><linearGradient gradientUnits="userSpaceOnUse" id="Z" x1="1523.63" y1="700" x2="1643.63" y2="580"><stop offset="0%" stop-color="#4d27a8"/><stop offset="100%" stop-color="#a166ff"/></linearGradient><path fill="#3a414a" d="M210-169c-67 3-38 105-44 169h-31v-121c0-29-5-50-35-48C34-165 62-65 56 0H25l-1-190h30c1 10-1 24 2 32 10-44 99-50 107 0 11-21 27-35 58-36 85-2 47 119 55 194h-31v-121c0-29-5-49-35-48" id="bY"/><path fill="#3a414a" d="M9 0v-24l116-142H16v-24h144v24L44-24h123V0H9" id="bZ"/><g id="aa"><use transform="matrix(0.06172839506172839,0,0,0.06172839506172839,0,0)" xlink:href="#bH"/><use transform="matrix(0.06172839506172839,0,0,0.06172839506172839,14.814814814814813,0)" xlink:href="#bY"/><use transform="matrix(0.06172839506172839,0,0,0.06172839506172839,33.2716049382716,0)" xlink:href="#bW"/><use transform="matrix(0.06172839506172839,0,0,0.06172839506172839,45.61728395061728,0)" xlink:href="#bZ"/><use transform="matrix(0.06172839506172839,0,0,0.06172839506172839,56.72839506172839,0)" xlink:href="#bk"/><use transform="matrix(0.06172839506172839,0,0,0.06172839506172839,69.07407407407408,0)" xlink:href="#ao"/></g><path fill="#3a414a" d="M140-251c81 0 123 46 123 126C263-46 219 4 140 4 59 4 17-45 17-125s42-126 123-126zm0 227c63 0 89-41 89-101s-29-99-89-99c-61 0-89 39-89 99S79-25 140-24" id="ca"/><path fill="#3a414a" d="M115-194c55 1 70 41 70 98S169 2 115 4C84 4 66-9 55-30l1 105H24l-1-265h31l2 30c10-21 28-34 59-34zm-8 174c40 0 45-34 45-75s-6-73-45-74c-42 0-51 32-51 76 0 43 10 73 51 73" id="cb"/><g id="ab"><use transform="matrix(0.06172839506172839,0,0,0.06172839506172839,0,0)" xlink:href="#ca"/><use transform="matrix(0.06172839506172839,0,0,0.06172839506172839,17.28395061728395,0)" xlink:href="#cb"/><use transform="matrix(0.06172839506172839,0,0,0.06172839506172839,29.629629629629626,0)" xlink:href="#ap"/><use transform="matrix(0.06172839506172839,0,0,0.06172839506172839,41.9753086419753,0)" xlink:href="#ao"/><use transform="matrix(0.06172839506172839,0,0,0.06172839506172839,54.32098765432098,0)" xlink:href="#bE"/><use transform="matrix(0.06172839506172839,0,0,0.06172839506172839,69.1358024691358,0)" xlink:href="#ap"/><use transform="matrix(0.06172839506172839,0,0,0.06172839506172839,81.48148148148148,0)" xlink:href="#bW"/><use transform="matrix(0.06172839506172839,0,0,0.06172839506172839,93.82716049382717,0)" xlink:href="#bl"/><use transform="matrix(0.06172839506172839,0,0,0.06172839506172839,101.17283950617285,0)" xlink:href="#by"/><use transform="matrix(0.06172839506172839,0,0,0.06172839506172839,112.28395061728396,0)" xlink:href="#bB"/></g><g id="ac"><use transform="matrix(0.06172839506172839,0,0,0.06172839506172839,0,0)" xlink:href="#bE"/><use transform="matrix(0.06172839506172839,0,0,0.06172839506172839,14.814814814814813,0)" xlink:href="#ap"/><use transform="matrix(0.06172839506172839,0,0,0.06172839506172839,27.160493827160494,0)" xlink:href="#bl"/><use transform="matrix(0.06172839506172839,0,0,0.06172839506172839,34.50617283950617,0)" xlink:href="#bX"/><use transform="matrix(0.06172839506172839,0,0,0.06172839506172839,45.61728395061728,0)" xlink:href="#bA"/><use transform="matrix(0.06172839506172839,0,0,0.06172839506172839,50.49382716049382,0)" xlink:href="#by"/><use transform="matrix(0.06172839506172839,0,0,0.06172839506172839,61.60493827160494,0)" xlink:href="#ap"/></g><path fill="#333" d="M182-130c37 4 62 22 62 59C244 23 116-4 24 0v-248c84 5 203-23 205 63 0 31-19 50-47 55zM76-148c40-3 101 13 101-30 0-44-60-28-101-31v61zm0 110c48-3 116 14 116-37 0-48-69-32-116-35v72" id="cc"/><path fill="#333" d="M137-138c1-29-70-34-71-4 15 46 118 7 119 86 1 83-164 76-172 9l43-7c4 19 20 25 44 25 33 8 57-30 24-41C81-84 22-81 20-136c-2-80 154-74 161-7" id="cd"/><path fill="#333" d="M25-224v-37h50v37H25zM25 0v-190h50V0H25" id="ce"/><g id="ad"><use transform="matrix(0.04938271604938272,0,0,0.04938271604938272,0,0)" xlink:href="#cc"/><use transform="matrix(0.04938271604938272,0,0,0.04938271604938272,12.790123456790125,0)" xlink:href="#bP"/><use transform="matrix(0.04938271604938272,0,0,0.04938271604938272,22.66666666666667,0)" xlink:href="#cd"/><use transform="matrix(0.04938271604938272,0,0,0.04938271604938272,32.543209876543216,0)" xlink:href="#ce"/><use transform="matrix(0.04938271604938272,0,0,0.04938271604938272,37.48148148148149,0)" xlink:href="#bM"/></g><path fill="#333" d="M199 0l-22-63H83L61 0H9l90-248h61L250 0h-51zm-33-102l-36-108c-10 38-24 72-36 108h72" id="cf"/><path fill="#333" d="M85 4C-2 5 27-109 22-190h50c7 57-23 150 33 157 60-5 35-97 40-157h50l1 190h-47c-2-12 1-28-3-38-12 25-28 42-61 42" id="cg"/><path fill="#333" d="M114-157C55-157 80-60 75 0H25v-261h50l-1 109c12-26 28-41 61-42 86-1 58 113 63 194h-50c-7-57 23-157-34-157" id="ch"/><g id="ae"><use transform="matrix(0.04938271604938272,0,0,0.04938271604938272,0,0)" xlink:href="#cf"/><use transform="matrix(0.04938271604938272,0,0,0.04938271604938272,12.790123456790125,0)" xlink:href="#cg"/><use transform="matrix(0.04938271604938272,0,0,0.04938271604938272,23.60493827160494,0)" xlink:href="#bQ"/><use transform="matrix(0.04938271604938272,0,0,0.04938271604938272,29.481481481481485,0)" xlink:href="#ch"/></g><g id="af"><use transform="matrix(0.06172839506172839,0,0,0.06172839506172839,0,0)" xlink:href="#bH"/><use transform="matrix(0.06172839506172839,0,0,0.06172839506172839,14.012345679012345,0)" xlink:href="#bj"/><use transform="matrix(0.06172839506172839,0,0,0.06172839506172839,34.938271604938265,0)" xlink:href="#bE"/></g><g id="ag"><use transform="matrix(0.06172839506172839,0,0,0.06172839506172839,0,0)" xlink:href="#bE"/><use transform="matrix(0.06172839506172839,0,0,0.06172839506172839,14.814814814814813,0)" xlink:href="#ap"/><use transform="matrix(0.06172839506172839,0,0,0.06172839506172839,27.160493827160494,0)" xlink:href="#by"/><use transform="matrix(0.06172839506172839,0,0,0.06172839506172839,38.27160493827161,0)" xlink:href="#bl"/><use transform="matrix(0.06172839506172839,0,0,0.06172839506172839,45.617283950617285,0)" xlink:href="#ap"/><use transform="matrix(0.06172839506172839,0,0,0.06172839506172839,57.96296296296296,0)" xlink:href="#aq"/><use transform="matrix(0.06172839506172839,0,0,0.06172839506172839,64.1358024691358,0)" xlink:href="#al"/></g><g id="ah"><use transform="matrix(0.06172839506172839,0,0,0.06172839506172839,0,0)" xlink:href="#bJ"/><use transform="matrix(0.06172839506172839,0,0,0.06172839506172839,18.456790123456788,0)" xlink:href="#bW"/><use transform="matrix(0.06172839506172839,0,0,0.06172839506172839,30.80246913580247,0)" xlink:href="#ao"/><use transform="matrix(0.06172839506172839,0,0,0.06172839506172839,43.148148148148145,0)" xlink:href="#bW"/><use transform="matrix(0.06172839506172839,0,0,0.06172839506172839,55.49382716049382,0)" xlink:href="#bD"/><use transform="matrix(0.06172839506172839,0,0,0.06172839506172839,67.8395061728395,0)" xlink:href="#ap"/><use transform="matrix(0.06172839506172839,0,0,0.06172839506172839,80.18518518518519,0)" xlink:href="#bl"/></g></defs></g></svg>